<svg width="91" height="28" viewBox="0 0 91 28" fill="none" xmlns="http://www.w3.org/2000/svg">
<path d="M0 28V3.20102H6.47566V8.20511H6.84355C7.43218 4.52544 9.63954 2.83313 13.9814 2.83313C19.6477 2.83313 22.7752 6.47564 22.7752 12.4734C22.7752 18.4712 19.7213 22.113 14.2757 22.113C9.89744 22.113 7.83723 20.0527 7.28502 16.9617H6.91713V28H0ZM11.4797 15.8216C14.6808 15.8216 15.7845 14.9387 15.7845 12.4734C15.7845 10.0082 14.6808 9.16163 11.4797 9.16163C8.27871 9.16163 6.91713 9.75026 6.91713 12.4363V12.6934C6.91713 15.3058 8.3887 15.8209 11.4797 15.8209V15.8216Z" fill="#8F00FF" fill-opacity="0.2"/>
<path d="M24.6146 21.7451V3.20105H31.5318V21.7451H24.6146Z" fill="#8F00FF" fill-opacity="0.2"/>
<path d="M33.6655 15.3058V15.1587H40.5827V15.5266C40.5827 16.5567 41.2449 16.6674 43.7466 16.6674C46.2482 16.6674 46.5061 16.4095 46.5061 15.7845C46.5061 15.1958 46.2118 15.0487 44.4823 14.8643L39.1104 14.2757C35.2835 13.8707 33.2233 12.0684 33.2233 8.9409C33.2233 5.81343 35.8357 2.83313 42.7893 2.83313C49.2285 2.83313 52.6496 5.15123 52.6496 9.71384V9.861H45.7324V9.64027C45.7324 8.68374 45.3645 8.24227 42.5686 8.24227C40.324 8.24227 40.0297 8.53659 40.0297 9.23595C40.0297 9.75101 40.324 10.0089 42.495 10.2296L46.1747 10.6347C51.583 11.2233 53.3125 13.0264 53.3125 16.1538C53.3125 19.6128 49.8536 22.1144 43.7094 22.1144C37.1602 22.1144 33.6648 19.5756 33.6648 15.308L33.6655 15.3058Z" fill="#8F00FF" fill-opacity="0.2"/>
<path d="M63.9837 21.7451C59.3475 21.7451 56.5879 19.5006 56.5879 14.6808V8.86734H53.8655V3.20104H56.5879V0H63.505V3.20104H68.8398V8.86734H63.505V13.6871C63.505 15.1587 63.9465 15.5266 65.5288 15.5266H68.8406V21.7443H63.9837V21.7451Z" fill="#8F00FF" fill-opacity="0.2"/>
<path d="M69.9443 17.0353C69.9443 14.4229 71.7473 12.5462 75.9413 12.1419L83.4842 11.4062V11.0383C83.4842 9.16163 82.6749 8.86732 80.2096 8.86732C77.9287 8.86732 77.2293 9.30879 77.2293 10.8539V11.0011H70.3122V10.9275C70.3122 5.99701 74.4333 2.83313 80.7247 2.83313C87.016 2.83313 90.3278 5.99775 90.3278 11.1854V21.7451H83.8521V17.8447H83.4842C82.7849 20.4571 80.5039 22.113 76.4935 22.113C72.4831 22.113 69.9443 20.1999 69.9443 17.0353ZM78.5537 17.2932C81.9019 17.2932 83.2635 16.8881 83.4471 15.233L77.7808 15.8952C77.155 15.9688 76.8978 16.1895 76.8978 16.5946C76.8978 17.1832 77.4865 17.2939 78.5537 17.2939V17.2932Z" fill="#8F00FF" fill-opacity="0.2"/>
</svg>
