<svg width="75" height="75" viewBox="0 0 75 75" fill="none" xmlns="http://www.w3.org/2000/svg">
<g filter="url(#filter0_d_169_206)">
<mask id="mask0_169_206" style="mask-type:alpha" maskUnits="userSpaceOnUse" x="10" y="10" width="55" height="55">
<path d="M10 35.6C10 26.6392 10 22.1587 11.7439 18.7362C13.2779 15.7256 15.7256 13.2779 18.7362 11.7439C22.1587 10 26.6392 10 35.6 10H39.4C48.3608 10 52.8413 10 56.2638 11.7439C59.2744 13.2779 61.7221 15.7256 63.2561 18.7362C65 22.1587 65 26.6392 65 35.6V39.4C65 48.3608 65 52.8413 63.2561 56.2638C61.7221 59.2744 59.2744 61.7221 56.2638 63.2561C52.8413 65 48.3608 65 39.4 65H35.6C26.6392 65 22.1587 65 18.7362 63.2561C15.7256 61.7221 13.2779 59.2744 11.7439 56.2638C10 52.8413 10 48.3608 10 39.4V35.6Z" fill="white"/>
<path d="M10 35.6C10 26.6392 10 22.1587 11.7439 18.7362C13.2779 15.7256 15.7256 13.2779 18.7362 11.7439C22.1587 10 26.6392 10 35.6 10H39.4C48.3608 10 52.8413 10 56.2638 11.7439C59.2744 13.2779 61.7221 15.7256 63.2561 18.7362C65 22.1587 65 26.6392 65 35.6V39.4C65 48.3608 65 52.8413 63.2561 56.2638C61.7221 59.2744 59.2744 61.7221 56.2638 63.2561C52.8413 65 48.3608 65 39.4 65H35.6C26.6392 65 22.1587 65 18.7362 63.2561C15.7256 61.7221 13.2779 59.2744 11.7439 56.2638C10 52.8413 10 48.3608 10 39.4V35.6Z" stroke="black"/>
</mask>
<g mask="url(#mask0_169_206)">
<path d="M-11.4635 19.2927C-11.4635 10.4562 -4.30001 3.29272 4.53654 3.29272H70.4634C79.2999 3.29272 86.4634 10.4562 86.4634 19.2927V116.073C86.4634 124.91 79.2999 132.073 70.4634 132.073H4.53656C-4.3 132.073 -11.4635 124.91 -11.4635 116.073V19.2927Z" fill="white"/>
<path d="M-11.4635 19.2927C-11.4635 10.4562 -4.30001 3.29272 4.53654 3.29272H70.4634C79.2999 3.29272 86.4634 10.4562 86.4634 19.2927V116.073C86.4634 124.91 79.2999 132.073 70.4634 132.073H4.53656C-4.3 132.073 -11.4635 124.91 -11.4635 116.073V19.2927Z" stroke="black"/>
</g>
</g>
<defs>
<filter id="filter0_d_169_206" x="0" y="0" width="75" height="75" filterUnits="userSpaceOnUse" color-interpolation-filters="sRGB">
<feFlood flood-opacity="0" result="BackgroundImageFix"/>
<feColorMatrix in="SourceAlpha" type="matrix" values="0 0 0 0 0 0 0 0 0 0 0 0 0 0 0 0 0 0 127 0" result="hardAlpha"/>
<feOffset/>
<feGaussianBlur stdDeviation="5"/>
<feComposite in2="hardAlpha" operator="out"/>
<feColorMatrix type="matrix" values="0 0 0 0 0 0 0 0 0 0 0 0 0 0 0 0 0 0 0.25 0"/>
<feBlend mode="normal" in2="BackgroundImageFix" result="effect1_dropShadow_169_206"/>
<feBlend mode="normal" in="SourceGraphic" in2="effect1_dropShadow_169_206" result="shape"/>
</filter>
</defs>
</svg>
