<svg width="353" height="240" viewBox="0 0 353 240" fill="none" xmlns="http://www.w3.org/2000/svg">
<path d="M273.797 23.9136C242.735 67.0438 135.712 60.3663 98.6737 33.9786C92.097 29.2933 60.3171 13.198 23.3934 50.8646C-21.2311 96.3866 9.39534 178.958 29.302 196.971C69.0892 232.973 106.537 197.474 158.36 207.686C164.516 208.883 170.568 210.194 176.515 211.619L176.837 211.693C188.555 214.486 199.81 217.668 210.437 221.221C223.815 225.675 236.203 230.733 247.284 236.319C266.15 245.83 285.427 231.01 306.956 235.45C331.302 240.471 373.887 169.811 341.016 141.76C303.767 109.972 357.555 59.7165 343.736 28.0432C335.34 8.80233 300.004 -12.4786 273.797 23.9136Z" fill="url(#paint0_linear_76_10074)"/>
<path d="M281.976 16.3362V143.971C281.976 146.017 280.084 147.679 277.809 147.679H78.7906C76.5155 147.679 74.677 146.017 74.677 143.971V16.3362H281.976Z" fill="#202F85"/>
<path d="M78.7906 146.852C76.9764 146.852 75.5005 145.56 75.5005 143.972V17.1631H281.153V143.972C281.153 145.56 279.653 146.852 277.811 146.852H78.7906Z" fill="white"/>
<path d="M281.956 3.71905V16.337H134.809L143.426 0H277.816C280.097 0 281.956 1.66643 281.956 3.71905Z" fill="#2B42A0"/>
<path d="M143.425 0L134.809 16.337H74.6669V3.71905C74.6669 1.66979 76.5256 0 78.8066 0H143.425Z" fill="#202F85"/>
<path d="M90.6832 11.3629C92.4474 11.3629 93.8776 9.93269 93.8776 8.16849C93.8776 6.40429 92.4474 4.97414 90.6832 4.97414C88.919 4.97414 87.4888 6.40429 87.4888 8.16849C87.4888 9.93269 88.919 11.3629 90.6832 11.3629Z" fill="white"/>
<path d="M105.6 11.3629C107.364 11.3629 108.794 9.93269 108.794 8.16849C108.794 6.40429 107.364 4.97414 105.6 4.97414C103.836 4.97414 102.405 6.40429 102.405 8.16849C102.405 9.93269 103.836 11.3629 105.6 11.3629Z" fill="white"/>
<path d="M122.623 11.3629C124.387 11.3629 125.817 9.93269 125.817 8.16849C125.817 6.40429 124.387 4.97414 122.623 4.97414C120.858 4.97414 119.428 6.40429 119.428 8.16849C119.428 9.93269 120.858 11.3629 122.623 11.3629Z" fill="white"/>
<path d="M142.116 78.1415L114.727 78.696C114.695 78.6967 114.67 78.7232 114.671 78.7551L114.711 80.7662C114.712 80.7982 114.738 80.8236 114.77 80.823L142.159 80.2684C142.191 80.2677 142.216 80.2413 142.216 80.2093L142.175 78.1982C142.174 78.1662 142.148 78.1408 142.116 78.1415Z" fill="#6685DD"/>
<path d="M151.367 82.756L105.671 83.6813C105.639 83.6819 105.613 83.7084 105.614 83.7404L105.655 85.7515C105.655 85.7834 105.682 85.8088 105.714 85.8082L151.41 84.8829C151.442 84.8823 151.467 84.8558 151.467 84.8238L151.426 82.8128C151.425 82.7808 151.399 82.7554 151.367 82.756Z" fill="#6685DD"/>
<path d="M150.394 33.4447L151.081 67.3695C151.111 68.7389 150.63 70.0702 149.731 71.1037C148.832 72.1373 147.581 72.7991 146.221 72.9599C146.042 72.9841 145.862 72.9973 145.682 72.9993L111.757 73.6869C111.577 73.6916 111.397 73.6857 111.218 73.6693C110.23 73.5958 109.281 73.2545 108.473 72.682C107.764 72.184 107.183 71.5258 106.777 70.761C106.371 69.9961 106.151 69.1463 106.135 68.2804L105.447 34.3555C105.419 32.8942 105.971 31.4814 106.984 30.427C107.996 29.3725 109.385 28.7625 110.846 28.7308L144.771 28.044C146.232 28.0164 147.645 28.5691 148.699 29.5811C149.753 30.5931 150.363 31.9819 150.396 33.443L150.394 33.4447Z" fill="#2B42A0"/>
<path d="M128.162 54.5367C132.929 54.5367 136.793 50.6724 136.793 45.9056C136.793 41.1388 132.929 37.2745 128.162 37.2745C123.395 37.2745 119.531 41.1388 119.531 45.9056C119.531 50.6724 123.395 54.5367 128.162 54.5367Z" fill="white"/>
<path d="M146.245 71.7325C146.253 72.1439 146.245 72.5552 146.221 72.9599C146.042 72.9841 145.862 72.9973 145.682 72.9993L111.757 73.6869C111.577 73.6916 111.397 73.6857 111.218 73.6693C111.174 73.2654 111.151 72.8549 111.143 72.4436C110.947 62.7471 118.646 54.7298 128.335 54.5333C138.024 54.3369 146.049 62.0361 146.245 71.7325Z" fill="white"/>
<path d="M238.796 77.0886L211.407 77.6432C211.375 77.6439 211.35 77.6703 211.35 77.7023L211.391 79.7134C211.392 79.7454 211.418 79.7708 211.45 79.7701L238.839 79.2155C238.871 79.2149 238.896 79.1884 238.895 79.1564L238.855 77.1454C238.854 77.1134 238.828 77.088 238.796 77.0886Z" fill="#6685DD"/>
<path d="M248.046 81.7023L202.349 82.6276C202.317 82.6283 202.292 82.6547 202.293 82.6867L202.333 84.6978C202.334 84.7298 202.36 84.7552 202.392 84.7545L248.089 83.8292C248.121 83.8286 248.146 83.8021 248.146 83.7701L248.105 81.7591C248.104 81.7271 248.078 81.7017 248.046 81.7023Z" fill="#6685DD"/>
<path d="M247.094 33.4447L247.781 67.3695C247.811 68.7389 247.329 70.0702 246.431 71.1037C245.532 72.1373 244.28 72.7991 242.92 72.9599C242.742 72.9842 242.562 72.9973 242.382 72.9993L208.457 73.6869C208.277 73.6916 208.097 73.6857 207.917 73.6693C206.93 73.5957 205.981 73.2544 205.173 72.682C204.465 72.184 203.883 71.5259 203.477 70.761C203.071 69.9962 202.85 69.1463 202.834 68.2804L202.147 34.3555C202.119 32.8941 202.671 31.4811 203.684 30.4267C204.696 29.3722 206.085 28.7623 207.546 28.7308L241.471 28.0441C242.932 28.0168 244.345 28.5697 245.399 29.5816C246.453 30.5936 247.063 31.982 247.096 33.443L247.094 33.4447Z" fill="#6685DD"/>
<path d="M224.862 54.5367C229.629 54.5367 233.493 50.6724 233.493 45.9056C233.493 41.1388 229.629 37.2745 224.862 37.2745C220.096 37.2745 216.231 41.1388 216.231 45.9056C216.231 50.6724 220.096 54.5367 224.862 54.5367Z" fill="white"/>
<path d="M242.946 71.7325C242.954 72.1439 242.946 72.5552 242.92 72.9599C242.742 72.9842 242.562 72.9973 242.382 72.9993L208.457 73.6869C208.277 73.6916 208.097 73.6857 207.918 73.6693C207.874 73.2654 207.851 72.8549 207.843 72.4436C207.646 62.7471 215.346 54.7298 225.035 54.5333C234.724 54.3369 242.749 62.0361 242.946 71.7325Z" fill="white"/>
<path d="M150.935 146.852H105.961L105.449 121.591C105.398 119.802 106.217 118.217 107.52 117.169C108.47 116.42 109.636 115.999 110.844 115.967L144.773 115.277C146.236 115.253 147.649 115.803 148.711 116.81C149.708 117.808 150.373 119.161 150.398 120.672L150.935 146.852Z" fill="#6685DD"/>
<path d="M128.162 141.772C132.929 141.772 136.793 137.907 136.793 133.141C136.793 128.374 132.929 124.51 128.162 124.51C123.395 124.51 119.531 128.374 119.531 133.141C119.531 137.907 123.395 141.772 128.162 141.772Z" fill="white"/>
<path d="M141.04 146.852H116.34C119.49 143.721 123.713 141.903 128.152 141.765H128.331C130.683 141.716 133.02 142.141 135.203 143.015C137.387 143.89 139.372 145.194 141.04 146.852Z" fill="white"/>
<path d="M247.624 146.852H202.65L202.138 121.591C202.123 120.868 202.25 120.148 202.513 119.474C202.776 118.799 203.169 118.183 203.67 117.661C204.171 117.139 204.77 116.72 205.433 116.429C206.096 116.139 206.809 115.981 207.533 115.967L241.461 115.277C242.185 115.26 242.905 115.387 243.58 115.649C244.255 115.912 244.871 116.305 245.394 116.806C245.916 117.307 246.335 117.907 246.625 118.57C246.916 119.233 247.072 119.947 247.086 120.671L247.624 146.852Z" fill="#6685DD"/>
<path d="M226.121 141.772C230.887 141.772 234.752 137.907 234.752 133.141C234.752 128.374 230.887 124.51 226.121 124.51C221.354 124.51 217.49 128.374 217.49 133.141C217.49 137.907 221.354 141.772 226.121 141.772Z" fill="white"/>
<path d="M237.755 146.852H213.056C216.204 143.716 220.428 141.897 224.869 141.765H225.048C227.399 141.714 229.737 142.138 231.92 143.012C234.104 143.887 236.088 145.193 237.755 146.852Z" fill="white"/>
<path d="M189.872 92.6457C188.602 93.6363 187.019 94.138 185.41 94.0594C181.6 93.9268 178.038 95.1827 175.353 95.5462C173.394 95.8107 171.899 95.6042 171.089 94.0594C169.172 90.3815 179.575 85.3411 179.41 82.726C179.245 80.1109 179.732 74.3711 180.691 69.0083C180.691 69.0083 192.459 77.3295 193.491 81.7337C194.252 84.9465 193.103 90.159 189.872 92.6457Z" fill="#202F85"/>
<path d="M189.872 92.6457C188.602 93.6364 187.019 94.1381 185.41 94.0595C181.6 93.9268 178.038 95.1827 175.353 95.5462C174.518 94.836 173.957 94.0922 173.791 93.4315C173.254 91.2244 176.659 89.8216 179.857 85.0598C179.857 85.0598 187.26 88.5967 189.872 92.6457Z" fill="#000A5D"/>
<path d="M195.359 103.108C194.359 104.736 192.269 105.611 190.062 105.86C187.724 106.112 185.245 105.678 183.781 104.703C183.162 104.297 182.724 103.794 182.551 103.215C182.063 101.604 182.162 98.8682 182.418 96.1087C182.51 95.1172 182.617 94.1249 182.732 93.1746C182.749 93.0512 182.766 92.9353 182.774 92.8111C182.981 91.1253 183.179 89.6133 183.253 88.5472L196.202 85.357C196.202 85.357 196.31 86.2654 196.425 87.6791C196.781 91.7617 197.219 100.075 195.359 103.108Z" fill="#FC9E9E"/>
<path d="M195.359 103.108C194.359 104.736 192.269 105.611 190.062 105.86C189.947 104.727 190.633 102.968 189.894 101.488C188.762 99.1746 184.837 96.6292 182.729 93.1771C182.746 93.0537 182.763 92.9378 182.771 92.8136C184.031 92.2192 190.68 89.1122 194.48 87.9964C195.111 87.807 195.764 87.7014 196.423 87.6825C196.78 91.7617 197.219 100.075 195.359 103.108Z" fill="#FA6D6D"/>
<path d="M185.963 101.347C185.724 102.523 184.872 103.866 183.781 104.705C183.161 104.3 182.724 103.796 182.55 103.218C182.062 101.607 182.161 98.8707 182.417 96.1112C183.261 98.1084 186.318 99.638 185.963 101.347Z" fill="#F0C2D2"/>
<path d="M199.333 89.6218C196.983 90.7131 191.938 92.3813 187.496 93.0923H187.488C185.348 93.4281 183.348 93.5549 181.869 93.2821C177.894 92.5467 178.795 85.7625 179.406 82.5564C179.497 82.0854 179.58 81.6883 179.646 81.3995C179.803 80.6885 179.538 80.2343 179.109 79.9035V79.8951C178.199 79.2008 176.53 79.0556 176.406 78.1515C176.249 77.0357 179.117 73.9371 180.175 69.8402C180.174 69.8357 180.175 69.8311 180.176 69.8267C180.178 69.8224 180.18 69.8184 180.183 69.8151C180.31 69.3375 180.404 68.8516 180.464 68.361C180.506 68.0882 180.53 67.8153 180.548 67.5349C180.25 59.7921 199.33 61.8909 200.892 65.6754C202.455 69.4599 202.81 88.0015 199.333 89.6218Z" fill="#FC9E9E"/>
<path d="M224.86 100.478C224.104 100.428 223.464 100.42 222.894 100.436C219.927 100.51 218.78 101.287 213.688 101.585C212.714 101.64 211.738 101.606 210.771 101.486C207.738 101.131 204.962 100.08 202.399 99.4282C201.497 99.1864 200.577 99.0179 199.648 98.9244C199.121 98.868 198.589 98.8651 198.062 98.916C196.284 99.0898 195.648 94.7596 195.516 89.5974C195.475 87.7219 195.491 85.7222 195.549 83.7964C195.557 83.3338 195.574 82.8796 195.59 82.433C195.674 80.2931 195.797 78.2849 195.912 76.6731C196.069 74.4005 196.21 72.9053 196.21 72.9053C195.525 72.1447 194.822 71.1205 194.211 69.9468C192.74 67.1622 191.764 63.5262 192.558 60.5014C192.658 60.0847 192.796 59.6781 192.971 59.2867C194.112 56.7832 196.764 54.8985 201.805 54.6341C215.373 53.9322 208.68 64.7737 215.373 67.8069C215.547 67.8808 215.721 67.9555 215.902 68.0218C218.538 68.9554 219.764 71.1944 220.415 73.864C221.621 78.855 220.77 85.3335 223.339 87.3249C224.893 88.5237 226.182 90.8617 226.876 93.2501C227.959 96.9096 227.66 100.654 224.86 100.478Z" fill="#202F85"/>
<path d="M198.232 81.931C196.629 83.741 196.598 87.2006 196.095 89.291C195.996 89.6881 195.789 89.762 195.516 89.5966C195.475 87.7211 195.491 85.7214 195.549 83.7955C195.557 83.333 195.574 82.8788 195.59 82.4322C195.674 80.2922 195.797 78.2841 195.912 76.6722C197.103 75.5322 198.293 74.6893 198.83 74.2679C199.954 73.3922 202.483 73.1353 202.483 73.1353C203.829 75.9704 199.827 80.1294 198.232 81.931Z" fill="#000A5D"/>
<path d="M197.136 80.4903C196.723 80.5894 196.392 80.6641 196.111 80.7296L194.789 81.0436L194.987 73.2931C196.069 71.7392 197.681 70.9543 199.161 70.8585C201.028 70.7343 202.697 71.693 202.854 73.5601C203.146 76.8955 199.475 79.9287 197.136 80.4903Z" fill="#FC9E9E"/>
<path d="M180.179 67.8825C179.964 70.584 190.589 69.0578 192.274 70.4993C193.959 71.9407 193.953 75.4969 194.924 75.7882C195.894 76.0795 197.957 70.8451 197.957 70.8451C197.957 70.8451 198.343 65.1977 189.473 64.647C180.602 64.0963 180.179 67.8825 180.179 67.8825Z" fill="#FA6D6D"/>
<path d="M200.887 67.88C199.954 69.7395 195.458 74.607 195.458 74.607C194.871 72.7223 194.673 71.081 193.779 70.1198C193.184 69.4834 192.283 69.1443 190.763 69.2433C186.937 69.4952 182.086 67.88 178.674 68.4995C175.261 69.1191 173.534 60.6165 180.533 56.6993C183.178 55.2201 185.169 55.2452 186.731 55.7489C189.31 56.5507 190.714 58.6335 191.962 57.3197C193.961 55.2041 200.895 50.6035 207.034 54.0221C213.174 57.4406 201.813 66.0129 200.887 67.88Z" fill="#202F85"/>
<path d="M193.781 70.1198C193.186 69.4834 192.285 69.1442 190.765 69.2433C186.939 69.4952 182.088 67.8799 178.675 68.4995C175.263 69.1191 173.536 60.6164 180.535 56.6993C183.179 55.22 185.171 55.2452 186.733 55.7489C186.408 55.9052 186.058 56.0032 185.7 56.0386C184.039 56.104 181.262 56.319 179.634 60.1698C178.006 64.0207 179.634 67.5744 184.94 67.3342C189.219 67.1361 192.698 67.665 193.781 70.1198Z" fill="#2B42A0"/>
<path d="M210.771 101.485C207.738 101.13 204.962 100.08 202.399 99.4273C201.497 99.1855 200.577 99.017 199.648 98.9236C199.121 98.8671 198.589 98.8643 198.062 98.9152C195.632 99.1469 195.334 91.0153 195.549 83.793C196.648 92.3955 195.268 94.8998 202.573 96.4361C207.828 97.5459 209.589 99.7858 210.771 101.485Z" fill="#2B42A0"/>
<path d="M197.136 80.4904C196.723 80.5894 196.392 80.6641 196.111 80.7296C196.951 80.1512 198.748 78.829 200.053 77.3665C201.491 75.7639 201.201 72.4083 199.161 70.8552C201.028 70.731 202.697 71.6897 202.854 73.5568C203.146 76.8955 199.475 79.9287 197.136 80.4904Z" fill="#F0C2D2"/>
<path d="M179.113 79.8951C178.204 79.2008 176.535 79.0556 176.41 78.1515C176.254 77.0357 179.121 73.9371 180.179 69.8402C179.79 72.7156 180.203 75.674 178.881 76.6C177.792 77.3581 178.824 78.7962 179.113 79.8951Z" fill="#F0C2D2"/>
<path d="M187.492 93.0898C185.352 93.4256 183.352 93.5524 181.873 93.2795C177.898 92.5441 178.799 85.76 179.41 82.5539C179.578 86.2393 180.749 90.4369 183.74 91.8834C185.005 92.4971 186.335 92.8606 187.492 93.0898Z" fill="#F0C2D2"/>
<path d="M120.476 95.542H40.8932C39.7076 95.542 38.7465 96.5031 38.7465 97.6887V116.912C38.7465 118.097 39.7076 119.059 40.8932 119.059H120.476C121.662 119.059 122.623 118.097 122.623 116.912V97.6887C122.623 96.5031 121.662 95.542 120.476 95.542Z" fill="#2B42A0"/>
<path d="M56.4268 111.223C55.7944 112.012 54.9424 112.595 53.9784 112.9C53.0145 113.204 51.9819 113.216 51.0113 112.934C50.0407 112.651 49.1757 112.087 48.5256 111.313C47.8754 110.539 47.4695 109.589 47.359 108.585C47.2485 107.58 47.4385 106.565 47.9048 105.668C48.3712 104.771 49.0931 104.033 49.9791 103.546C50.8652 103.06 51.8756 102.847 52.8827 102.934C53.8897 103.022 54.8482 103.406 55.6368 104.039C56.6943 104.887 57.3716 106.12 57.5197 107.467C57.6679 108.815 57.2747 110.166 56.4268 111.223Z" fill="white"/>
<path d="M55.3118 106.29C55.379 106.358 54.1365 107.675 52.5465 109.229L51.8748 109.881L51.7539 109.997L51.6381 109.879C50.3948 108.61 49.5116 107.63 49.5695 107.572C49.6275 107.514 50.6072 108.398 51.8765 109.641H51.6398L52.3114 108.982C53.8989 107.427 55.2455 106.222 55.3118 106.29Z" fill="#000A5D"/>
<path d="M114.437 105.578C114.437 105.672 103.775 105.751 90.6245 105.751C77.4743 105.751 66.8107 105.672 66.8107 105.578C66.8107 105.483 77.4726 105.404 90.6245 105.404C103.776 105.404 114.437 105.482 114.437 105.578Z" fill="white"/>
<path d="M94.9026 110.229C94.9026 110.323 88.738 110.401 81.1345 110.401C73.531 110.401 67.3665 110.323 67.3665 110.229C67.3665 110.134 73.5293 110.055 81.1345 110.055C88.7397 110.055 94.9026 110.132 94.9026 110.229Z" fill="white"/>
<path d="M177.468 117.17C174.937 118.881 168.503 117.032 161.36 113.616C161.013 113.457 160.65 113.28 160.297 113.106C159.909 112.913 159.522 112.72 159.127 112.518C152.99 109.39 146.569 105.298 141.8 101.462C141.314 101.07 140.821 100.646 140.336 100.197C136.753 96.8861 133.353 92.1789 130.499 87.3274C126.508 80.5432 123.569 73.4846 122.667 69.5699C122.331 68.089 122.278 67.0555 122.57 66.6601C124.261 64.3934 127.209 66.0859 127.209 66.0859C125.814 59.1935 127.014 58.8039 127.722 60.5686C127.933 61.1273 128.114 61.6967 128.265 62.2745V62.2829C128.572 63.4003 128.944 64.8073 129.332 66.2286C129.849 68.1486 130.407 70.0904 130.936 71.3127C131.44 72.4561 134.294 76.7293 138.634 81.4415C141.482 84.5334 144.974 87.8025 148.867 90.5083C153.129 93.4844 157.882 95.7779 162.796 96.3849C163.259 96.4453 163.713 96.4977 164.159 96.5419C167 96.8777 169.642 97.0884 172.079 97.2353C172.163 97.2445 172.236 97.2446 172.319 97.2538C172.756 97.2731 173.186 97.3 173.607 97.3193C176.036 97.425 178.242 97.4718 180.226 97.4595C180.562 97.4595 180.898 97.4553 181.218 97.4486C181.515 97.4486 181.805 97.4444 182.086 97.4376C184.44 97.4024 186.441 97.2991 188.07 97.2101C188.322 97.195 188.573 97.1799 188.814 97.1732L189.499 97.1279C189.855 97.1136 190.186 97.0909 190.492 97.0766C190.563 97.0699 190.635 97.0674 190.707 97.0691L191.235 97.0481C191.633 97.0254 191.971 97.0196 192.261 97.0296C195.566 97.101 182.41 113.837 177.468 117.17Z" fill="#FC9E9E"/>
<path d="M164.159 96.552C164.114 97.4081 164.014 98.2605 163.861 99.1041C159.421 99.5314 155.171 98.6701 151.772 94.9141C150.319 93.3106 149.402 91.8339 148.866 90.5167C153.128 93.4928 157.881 95.7863 162.795 96.3933C163.259 96.4549 163.713 96.5078 164.159 96.552Z" fill="#F0C2D2"/>
<path d="M161.36 113.616C161.013 113.457 160.65 113.28 160.297 113.106C159.909 112.913 159.522 112.72 159.127 112.518C152.99 109.39 146.569 105.298 141.8 101.462C141.315 101.07 140.821 100.646 140.336 100.197C146.142 103.471 156.302 108.34 161.919 108.61C161.919 108.612 162.135 111.191 161.36 113.616Z" fill="#FA6D6D"/>
<path d="M128.265 62.2795V62.2879C128.223 62.4281 128.189 62.5104 128.165 62.5188C128.007 62.5751 127.781 61.7725 127.622 62.1595C127.463 62.5465 128.877 67.5635 127.588 67.5559C126.413 67.5483 123.45 67.2906 122.667 69.5707C122.331 68.0898 122.278 67.0564 122.57 66.661C124.261 64.3943 127.209 66.0868 127.209 66.0868C125.814 59.1943 127.014 58.8048 127.722 60.5695C127.933 61.1295 128.114 61.7004 128.265 62.2795Z" fill="#F0C2D2"/>
<path d="M138.634 81.4457C136.115 79.9673 133.629 78.3487 131.895 76.7688C129.791 74.8463 129.052 68.6934 129.324 66.2328H129.332C129.849 68.1528 130.407 70.0946 130.936 71.3169C131.442 72.4604 134.291 76.7335 138.634 81.4457Z" fill="#F0C2D2"/>
<path d="M177.468 117.17C174.672 119.053 167.134 116.611 159.126 112.52C159.872 110.955 160.643 109.24 161.339 107.468C162.439 104.706 163.39 101.795 163.858 99.1041C164.011 98.2605 164.11 97.4081 164.155 96.552C166.996 96.8878 169.639 97.0985 172.076 97.2454C172.16 97.2546 172.233 97.2546 172.315 97.2639C172.753 97.2832 173.183 97.31 173.604 97.3293C176.032 97.4351 178.239 97.4819 180.223 97.4695C180.558 97.4695 180.894 97.4654 181.214 97.4586C181.511 97.4586 181.802 97.4544 182.082 97.4477C184.437 97.4125 186.438 97.3092 188.066 97.2202C188.318 97.2051 188.57 97.19 188.81 97.1833L189.496 97.1379C189.852 97.1237 190.183 97.101 190.488 97.0867C190.56 97.08 190.631 97.0775 190.703 97.0792L191.232 97.0582C191.629 97.0355 191.968 97.0296 192.257 97.0397C195.566 97.101 182.41 113.837 177.468 117.17Z" fill="#FEAD00"/>
<path d="M177.468 117.17C174.672 119.053 167.134 116.611 159.126 112.52C159.872 110.955 160.643 109.24 161.339 107.468C165.388 107.451 170.119 106.803 171.202 104.074C172.89 99.8043 177.308 98.906 182.086 97.4477C187.168 97.3638 190.575 97.0045 192.261 97.0397C195.566 97.101 182.41 113.837 177.468 117.17Z" fill="#F27203"/>
<path d="M172.084 97.2454C169.375 98.1051 166.586 98.848 163.866 99.1041C164.019 98.2605 164.118 97.4081 164.163 96.552C166.999 96.8836 169.642 97.0985 172.084 97.2454Z" fill="#FFD579"/>
<path d="M178.972 166.762L178.692 212.153L178.371 212.076C176.118 211.525 173.858 210.985 171.58 210.473C169.178 209.92 166.766 209.389 164.342 208.878C162.98 208.588 161.611 208.307 160.241 208.026C161.933 201.599 163.884 194.661 165.875 188.227C166.81 185.218 167.753 182.314 168.695 179.626C168.822 179.254 168.956 178.883 169.082 178.521C170.983 173.178 172.811 168.782 174.381 166.233L178.972 166.762Z" fill="#101D71"/>
<path d="M169.87 186.142C169.469 189.685 168.318 203.321 164.342 208.874C162.98 208.585 161.611 208.303 160.241 208.022C161.933 201.596 163.884 194.658 165.875 188.224C166.81 185.214 167.753 182.311 168.695 179.622C169.419 181.536 170.115 184.019 169.87 186.142Z" fill="#2B42A0"/>
<path d="M178.972 166.762L178.692 212.153L178.371 212.076C176.118 211.525 173.857 210.985 171.58 210.473C171.393 204.48 174.333 199.449 174.704 195.625C175.066 191.826 170.102 183.375 169.079 178.517C170.98 173.175 172.808 168.779 174.377 166.229L178.972 166.762Z" fill="#020D4C"/>
<path d="M214.03 202.429C213.815 207.857 213.007 215.48 212.233 221.879C210.823 221.399 209.404 220.928 207.97 220.452C202.155 218.556 196.169 216.768 190.012 215.086C186.292 214.063 182.518 213.083 178.692 212.148L178.371 212.071C178.335 204.452 178.305 195.907 178.335 188.296C178.389 176.934 178.561 167.671 178.972 166.757C179.768 165.01 193.856 165.344 202.043 165.684H202.051C205.438 165.829 207.818 165.976 207.818 165.976C208.027 166.845 208.366 168.169 208.777 169.807C209.922 174.393 211.639 181.519 212.807 188.508C213.64 193.58 214.186 198.533 214.03 202.429Z" fill="#101D71"/>
<path d="M214.03 202.429C213.815 207.857 213.007 215.48 212.233 221.879C210.823 221.399 209.404 220.928 207.97 220.452C209.233 216.584 211.404 211.49 210.033 206.044C208.001 197.942 206.892 179.25 208.774 169.808C209.919 174.394 211.636 181.519 212.804 188.509C213.64 193.58 214.186 198.533 214.03 202.429Z" fill="#2B42A0"/>
<path d="M202.168 203.108C200.123 205.165 188.958 206.257 189.476 212.217C189.566 213.189 189.746 214.15 190.012 215.088C186.292 214.065 182.518 213.086 178.692 212.15L178.371 212.074C178.335 204.454 177.542 195.904 177.572 188.293C177.626 176.931 178.561 167.673 178.972 166.759C179.768 165.012 193.856 165.347 202.043 165.686H202.051L202.059 165.695C200.913 172.117 201.661 179.41 203.126 187.129C204.59 194.848 204.214 201.052 202.168 203.108Z" fill="#000A5D"/>
<path d="M207.818 165.972C207.112 166.489 191.267 166.919 181.641 166.778C177.485 166.711 174.495 166.544 174.373 166.229C174.316 166.072 174.246 165.311 174.171 164.112C173.717 157.251 172.938 136.207 172.156 135.342C171.232 134.328 165.414 128.507 166.853 122.84C168.082 117.98 172.373 108.048 176.692 103.356C177.399 102.592 178.105 101.96 178.801 101.518C182.237 99.335 187.409 98.0178 190.239 97.4234C191.472 97.159 192.258 97.0397 192.258 97.0397C202.384 96.4823 207.331 102.388 208.768 107.942C210.205 113.495 208.814 165.226 207.818 165.972Z" fill="#FEAD00"/>
<path d="M181.725 151.73C180.176 156.555 178.484 162.883 174.213 164.096C174.197 164.098 174.183 164.103 174.171 164.112C173.717 157.251 172.938 136.207 172.156 135.342C171.232 134.328 165.414 128.507 166.853 122.84C168.082 117.98 172.373 108.048 176.692 103.356C174.935 110.7 170.673 123.772 172.634 130.137C174.792 137.101 183.268 146.897 181.725 151.73Z" fill="#FFD579"/>
<path d="M211.645 168.421C210.94 168.938 204.203 165.07 181.641 166.778C182.526 162.684 184.17 158.703 184.137 156.166C184.066 150.174 189.533 135.961 190.411 130.249C191.289 124.536 184.534 108.652 186.13 101.018C186.13 101.018 187.652 99.3828 190.243 97.4234C191.476 97.159 192.262 97.0397 192.262 97.0397C202.388 96.4823 207.335 102.388 208.772 107.942C210.209 113.495 212.641 167.676 211.645 168.421Z" fill="#F27203"/>
<path d="M201.886 193.396C201.902 193.744 201.838 194.091 201.7 194.411C201.562 194.731 201.353 195.015 201.09 195.243C200.701 195.585 200.207 195.784 199.689 195.805L174.271 196.97C173.969 196.984 173.667 196.938 173.382 196.835C173.098 196.733 172.836 196.575 172.612 196.371C172.389 196.167 172.208 195.921 172.079 195.647C171.951 195.373 171.877 195.076 171.864 194.774L171.507 186.929L171.106 178.225L170.057 155.402C170.043 155.099 170.089 154.796 170.192 154.51C170.296 154.224 170.454 153.962 170.659 153.738C170.864 153.513 171.111 153.332 171.386 153.203C171.661 153.074 171.958 153.001 172.262 152.987L181.496 152.567L197.673 151.832C197.976 151.816 198.279 151.861 198.565 151.964C198.851 152.066 199.114 152.224 199.339 152.429C199.693 152.748 199.936 153.172 200.033 153.64C200.065 153.767 200.083 153.897 200.088 154.029L201.886 193.396Z" fill="#FEDCA1"/>
<path d="M185.8 175.304C188.066 175.304 189.903 173.467 189.903 171.201C189.903 168.935 188.066 167.098 185.8 167.098C183.535 167.098 181.698 168.935 181.698 171.201C181.698 173.467 183.535 175.304 185.8 175.304Z" fill="white"/>
<path d="M201.886 193.396C201.902 193.744 201.838 194.091 201.7 194.411C201.562 194.731 201.353 195.015 201.09 195.243C200.701 195.585 200.207 195.784 199.689 195.805L174.271 196.97C173.969 196.984 173.667 196.938 173.382 196.835C173.098 196.733 172.836 196.575 172.612 196.371C172.389 196.167 172.208 195.921 172.079 195.647C171.951 195.373 171.877 195.076 171.864 194.774L171.507 186.929C172.461 186.332 173.389 185.916 173.941 185.647C173.941 185.647 180.129 185.991 181.893 183.936C183.658 181.88 189.906 175.11 191.28 170.615C192.436 166.82 196.197 157.216 200.029 153.637C200.06 153.765 200.079 153.895 200.084 154.026L201.886 193.396Z" fill="#EAC794"/>
<path d="M205.161 136.091C204.809 143.526 203.901 151.702 202.121 158.599C201.807 159.81 201.425 161.002 200.976 162.17C195.592 176.274 180.643 189.497 174.933 188.189H174.925C174.677 188.137 174.438 188.049 174.216 187.928C174.117 187.878 174.026 187.82 173.936 187.778C173.713 187.636 173.516 187.511 173.343 187.386C169.657 184.686 176.455 182.579 182.297 175.897C187.191 170.291 186.511 150.578 185.831 136.327C187.055 136.584 188.292 136.774 189.537 136.895C192.469 137.211 195.32 137.195 197.816 137.037C200.283 136.884 202.736 136.568 205.161 136.091Z" fill="#FC9E9E"/>
<path d="M205.161 136.091C202.736 136.567 200.283 136.884 197.816 137.037C195.32 137.195 192.469 137.211 189.537 136.895H189.529C188.287 136.77 187.053 136.58 185.831 136.327C185.648 132.458 185.462 128.995 185.388 126.325C185.118 116.464 186.132 111.55 189.535 109.203C190.447 108.573 191.533 108.133 192.809 107.827C193.14 107.746 193.462 107.682 193.777 107.634C194.88 107.436 196.009 107.426 197.115 107.606C201.235 108.292 203.503 111.752 204.448 115.204C205.148 117.761 205.632 126.277 205.161 136.091Z" fill="#FEAD00"/>
<path d="M189.383 160.33C188.648 168.316 187.442 173.541 183.703 176.963C180.278 180.091 174.017 185.002 173.341 187.386C169.656 184.686 176.453 182.579 182.295 175.897C187.189 170.291 186.509 150.578 185.829 136.327C187.053 136.584 188.29 136.774 189.535 136.895C189.514 145.654 190.091 152.612 189.383 160.33Z" fill="#F0C2D2"/>
<path d="M189.536 136.895H189.527C188.285 136.77 187.051 136.58 185.829 136.327C185.646 132.458 185.46 128.995 185.387 126.325C185.116 116.464 186.13 111.55 189.533 109.203C189.751 109.363 189.914 109.586 190 109.842C191.384 114.561 189.448 127.006 189.536 136.895Z" fill="#FFD579"/>
<path d="M205.161 136.091C202.736 136.567 200.283 136.884 197.816 137.037C197.803 135.252 197.797 133.542 197.823 131.955C198.036 120.202 195.714 112.051 193.775 107.634C194.878 107.436 196.007 107.426 197.114 107.606C201.233 108.292 203.501 111.752 204.446 115.204C205.148 117.761 205.632 126.277 205.161 136.091Z" fill="#F27203"/>
<path d="M205.161 136.091C204.809 143.526 203.901 151.702 202.121 158.599C201.807 159.81 201.425 161.002 200.976 162.17C195.592 176.274 180.643 189.497 174.933 188.189H174.924C174.677 188.137 174.438 188.049 174.216 187.928C174.117 187.878 174.026 187.82 173.936 187.778C177.064 184.368 188.187 177.627 193.312 170.626C198.488 163.568 197.919 148.64 197.816 137.037C200.283 136.884 202.736 136.568 205.161 136.091Z" fill="#FA6D6D"/>
<path d="M181.498 152.564C181.06 155.263 180.172 159.778 178.476 165.337C176.358 172.265 173.8 174.373 171.107 178.224L170.058 155.401C170.044 155.098 170.09 154.795 170.193 154.509C170.297 154.224 170.455 153.961 170.66 153.737C170.865 153.513 171.111 153.331 171.386 153.202C171.661 153.073 171.959 153 172.262 152.986L181.498 152.564Z" fill="white"/>
<path d="M283.096 202.704L273.797 238.83C276.514 238.787 279.221 238.722 281.92 238.634C287.341 238.46 292.729 238.191 298.084 237.829C300.574 237.992 309.659 234.294 309.541 229.318C309.373 222.244 298.807 227.229 302.604 224.546C307.283 221.254 337.937 207.052 332.62 200.624C327.303 194.196 321.925 198.75 322.867 194.521C323.807 190.309 345.87 164.509 329.019 159.354C312.169 154.198 309.784 190.587 304.14 186.489C298.495 182.392 298.396 176.683 292.903 184.558C291.429 186.671 289.932 189.537 288.392 192.604C288.08 193.216 287.778 193.828 287.468 194.451C286.733 195.917 285.985 197.397 285.234 198.825C284.525 200.17 283.812 201.48 283.096 202.704Z" fill="url(#paint1_linear_76_10074)"/>
<path d="M250.243 232.995C250.567 234.869 250.793 236.759 250.918 238.656C252.837 238.723 254.756 238.773 256.673 238.806C258.475 238.835 260.276 238.863 262.082 238.876C266 238.903 269.904 238.887 273.793 238.827L288.976 179.848C288.245 177.517 286.558 175.948 283.299 175.911C280.861 175.873 279.124 176.851 277.89 178.43C276.475 180.216 275.7 182.764 275.228 185.458C274.101 191.893 274.688 199.126 272.366 198.665C272.298 198.655 272.23 198.64 272.164 198.621C267.653 197.016 266.487 193.26 264.397 199.523C262.344 205.608 261.99 218.52 257.692 219.701C257.582 219.733 257.47 219.756 257.357 219.769C252.754 220.361 247.696 218.268 250.243 232.995Z" fill="url(#paint2_linear_76_10074)"/>
<path d="M239.729 238.225C243.459 238.417 247.176 238.565 250.877 238.671C252.796 238.738 254.715 238.788 256.632 238.821C258.434 238.85 260.235 238.879 262.041 238.891C262.192 238.503 262.343 238.115 262.515 237.716C266.934 227.306 262.845 227.977 259.552 226.748C259.43 226.702 259.314 226.641 259.207 226.565C257.804 225.684 257.577 222.886 257.651 219.714C257.725 216.542 258.091 212.998 257.861 210.612C257.4 205.638 255.896 208.203 252.294 208.607C252.243 208.613 252.191 208.611 252.141 208.602C250.348 208.541 252.026 203.313 252.309 198.379C252.421 196.318 252.294 194.296 251.558 192.742C250.923 191.367 249.82 190.349 248.01 189.952C239.065 187.973 242.426 205.281 241.769 207.433C241.113 209.584 239.843 206.135 235.791 207.685C231.74 209.234 241.958 223.505 243.228 226.195C244.499 228.885 242.69 226.099 235.23 226.531C231.294 226.769 234.592 232.32 239.729 238.225Z" fill="url(#paint3_linear_76_10074)"/>
<path d="M288.98 179.848L273.797 238.83C276.514 238.787 279.221 238.722 281.92 238.634C288.906 233.24 293.201 228.159 288.72 226.826C279.255 224.015 276.081 227.063 278.538 223.984C280.972 220.908 298.42 205.619 293.674 202.408C288.928 199.198 286.259 203.239 286.057 200.277C286.003 199.461 286.694 197.24 287.47 194.454C288.735 189.879 290.221 183.777 288.98 179.848Z" fill="url(#paint4_linear_76_10074)"/>
<defs>
<linearGradient id="paint0_linear_76_10074" x1="175.364" y1="196.245" x2="178.104" y2="83.2616" gradientUnits="userSpaceOnUse">
<stop stop-color="white"/>
<stop offset="1" stop-color="#EBFFFD"/>
</linearGradient>
<linearGradient id="paint1_linear_76_10074" x1="298.547" y1="178.325" x2="307.685" y2="220.905" gradientUnits="userSpaceOnUse">
<stop stop-color="#17F4CD"/>
<stop offset="1" stop-color="#174071"/>
</linearGradient>
<linearGradient id="paint2_linear_76_10074" x1="271.569" y1="179.714" x2="264.675" y2="230.509" gradientUnits="userSpaceOnUse">
<stop stop-color="#17F4CD"/>
<stop offset="1" stop-color="#174071"/>
</linearGradient>
<linearGradient id="paint3_linear_76_10074" x1="236.692" y1="202.374" x2="255.453" y2="235.934" gradientUnits="userSpaceOnUse">
<stop stop-color="#17F4CD"/>
<stop offset="1" stop-color="#174071"/>
</linearGradient>
<linearGradient id="paint4_linear_76_10074" x1="288.725" y1="182.042" x2="281.831" y2="232.836" gradientUnits="userSpaceOnUse">
<stop stop-color="#17F4CD"/>
<stop offset="1" stop-color="#174071"/>
</linearGradient>
</defs>
</svg>
