<svg width="339" height="243" viewBox="0 0 339 243" fill="none" xmlns="http://www.w3.org/2000/svg">
<path d="M335.689 199.74C331.337 209.283 310.08 217.124 310.08 217.124C308.922 217.459 307.764 217.789 306.606 218.117L306.265 218.212C306.253 218.212 306.242 218.22 306.23 218.222C295.157 221.347 284.061 224.169 272.944 226.69C271.667 226.981 270.39 227.267 269.114 227.55C262.353 229.045 255.592 230.427 248.831 231.696L247.445 231.955C246.808 232.078 246.175 232.197 245.54 232.309C245.078 232.39 244.616 232.47 244.153 232.551C242.294 232.892 240.427 233.226 238.568 233.537C237.559 233.711 236.556 233.886 235.556 234.053C226.386 235.574 217.221 236.889 208.062 237.996C207.011 238.124 205.959 238.248 204.908 238.369C201.701 238.741 198.496 239.086 195.293 239.405C175.514 241.385 155.909 242.364 136.585 242.364C107.823 242.364 79.6608 240.179 52.3861 235.817C51.8847 235.732 51.3849 235.665 50.8915 235.576C49.8822 235.415 48.8729 235.25 47.8717 235.075C46.0728 234.771 44.2756 234.453 42.4921 234.134C41.3926 233.937 40.2924 233.732 39.2002 233.526C36.8324 233.08 34.4653 232.624 32.1176 232.146C28.7565 231.463 25.4183 230.745 22.1028 229.991C21.6199 229.885 21.8453 229.612 22.3563 229.224L22.3612 229.22C23.6803 228.223 26.886 226.477 24.8514 224.908C22.0207 222.725 19.7003 220.468 17.8186 218.152C5.84002 203.416 11.6293 186.329 16.7723 171.109C20.6782 159.546 24.2123 149.061 19.2995 141.503C-2.95296 107.276 9.74998 75.2656 34.7253 55.6997C72.0872 26.4297 132.364 74.2651 164.981 84.2549C209.844 97.9953 310.08 23.6127 303.228 99.803C301.267 121.614 310.245 137.405 317.554 147.477C325.674 158.671 344.651 180.086 335.689 199.74Z" fill="url(#paint0_linear_82_137)"/>
<path d="M157.926 173.773L171.831 239.331H175.017L163.443 173.773H157.926Z" fill="#D6D6D6"/>
<path d="M174.417 174.491L172.917 239.331H170.057L170.239 174.655L174.417 174.491Z" fill="white"/>
<path d="M191.203 173.773L205.107 239.331H208.293L196.719 173.773H191.203Z" fill="white"/>
<path d="M145.418 174.491L143.918 239.331H141.057L141.238 174.655L145.418 174.491Z" fill="white"/>
<path d="M195.388 103.212C195.388 103.212 213.014 102.206 211.254 122.604C209.494 143.002 208.483 163.651 201.936 170.703C195.389 177.755 129.409 178.006 123.866 172.214C118.323 166.421 134.445 166.674 137.472 166.674C140.499 166.674 159.129 168.437 165.172 152.571C171.216 136.706 169.702 102.206 195.388 103.212Z" fill="#D6D6D6"/>
<path d="M196.519 103.224C196.519 103.224 209.995 105.983 208.735 120.085C207.474 134.188 203.952 158.867 197.402 165.162C190.852 171.458 165.199 172.83 151.315 171.962C135.199 170.955 125.025 167.886 125.025 167.886C125.025 167.886 122.083 169.777 122.975 170.996C123.866 172.215 131.723 177.113 169.817 176.298C207.91 175.482 205.262 169.859 206.84 163.721C208.418 157.583 211.74 124.847 211.279 117.651C210.818 110.454 207.201 104.486 196.519 103.224Z" fill="white"/>
<path d="M188.141 134.171C188.95 136.749 189.516 139.398 189.831 142.082L155.786 143.45L148.397 143.749L149.882 136.857L152.377 125.282L152.335 124.859L151.68 118.648L151.481 116.732L151.174 113.847C151.174 113.847 147.26 112.113 147.26 108.357C147.26 106.499 147.766 104.816 148.238 103.631V103.622C148.454 103.076 148.709 102.547 149.001 102.038C149.018 102.005 149.034 101.989 149.034 101.964L135.701 112.968L132.079 103.846L130.63 100.23L130.058 98.7873C130.058 98.7873 137.439 90.7774 143.442 84.0022C146.5 80.5526 150.566 79.2761 153.717 78.8367C156.552 78.4343 158.658 78.72 158.658 78.72L171.354 78.9276C171.354 78.9276 174.264 79.0685 177.772 80.1132C182.532 81.5313 188.403 84.6203 189.589 91.2579L192.403 105.344H184.492L184.314 109.908L183.924 119.784L183.725 124.668C185.606 127.629 187.09 130.824 188.141 134.171Z" fill="#FEAD00"/>
<path d="M149.051 101.947L149.043 101.955L135.701 112.968L132.079 103.846C139.757 98.3068 151.052 96.5072 151.516 96.574C151.995 96.64 149.507 101.079 149.051 101.947Z" fill="#F27203"/>
<path d="M151.481 116.732L151.174 113.847C151.174 113.847 147.26 112.113 147.26 108.357C147.26 106.499 147.765 104.816 148.238 103.631V103.622C148.454 103.076 148.709 102.547 149.001 102.038C149.018 102.005 149.034 101.989 149.034 101.964L149.043 101.955C147.835 106.474 150.112 112.487 155.453 114.61C159.955 116.401 156.29 117.719 151.481 116.732Z" fill="#FFD579"/>
<path d="M153.72 78.8367C152.202 79.2842 150.295 80.0802 149.001 81.3905C146.828 83.5877 139.922 96.8058 130.634 100.23L130.061 98.7873C130.061 98.7873 137.442 90.7774 143.445 84.0022C146.505 80.5551 150.569 79.2761 153.72 78.8367Z" fill="#FFD579"/>
<path d="M192.403 105.344H188.763C188.406 101.912 187.717 98.6191 186.963 96.4299C184.79 90.1199 179.749 83.3696 177.775 80.1108C182.535 81.5289 188.406 84.6179 189.592 91.2555L192.403 105.344Z" fill="#F27203"/>
<path d="M189.833 142.082L155.787 143.45C153.259 140.937 151.218 138.599 149.883 136.858L152.378 125.282L152.336 124.859L151.681 118.648L151.176 113.847C151.176 113.847 165.131 116.616 171.216 115.919C177.302 115.222 177.842 113.017 177.775 111.184C177.708 109.352 178.116 98.0251 178.116 98.0251C178.116 98.0251 178.812 101.201 179.948 105.349C179.948 105.349 181.748 107.058 184.31 109.91L183.92 119.787L183.721 124.67C185.603 127.631 187.089 130.826 188.141 134.173C188.95 136.751 189.516 139.399 189.833 142.082Z" fill="#F27203"/>
<path d="M252.652 129.72H244.101L248.829 231.7L247.442 231.959C246.806 232.082 246.172 232.201 245.538 232.313L240.778 129.72H70.6328L64.7832 237.287C63.683 237.09 62.5835 236.885 61.4906 236.681L67.3096 129.72H55.6635V123.908H252.652V129.72Z" fill="#101D71"/>
<path d="M96.8796 88.5681L108.953 123.85H163.625L163.222 122.034L141.115 121.35L130.93 88.5496L96.8796 88.5681Z" fill="white"/>
<path d="M184.666 77.899C184.368 77.8829 184.094 77.866 183.837 77.858C181.134 77.767 180.47 78.4214 176.324 78.6121C172.103 78.8037 168.488 76.5477 165.378 76.4648C165.157 76.4509 164.935 76.4536 164.714 76.4729C161.455 76.7385 163.587 57.0607 163.587 57.0607C160.644 53.702 157.567 43.8925 167.949 43.4941C178.332 43.0957 172.698 51.5298 178.323 53.6111C183.948 55.6924 180.772 65.7675 183.67 68.0799C186.567 70.3922 188.116 78.1566 184.666 77.899Z" fill="#202F85"/>
<path d="M183.837 77.858C181.134 77.767 180.471 78.4214 176.324 78.6121C172.103 78.8037 168.488 76.5477 165.378 76.4648C164.424 69.3419 163.885 62.5409 166.514 60.9586C169.69 59.0511 172.684 56.7733 172.684 56.7733C174.218 59.6756 175.843 59.1283 175.876 61.7232C175.909 64.318 177.083 64.7816 176.415 66.9064C175.747 69.0312 177.634 73.1504 180.81 74.1162C182.336 74.5823 183.547 76.1742 183.837 77.858Z" fill="#000A5D"/>
<path d="M166.133 76.8962C163.703 77.7171 160.677 78.1147 158.513 77.6093C154.092 76.5887 152.733 75.8386 146.821 75.7099C146.677 75.7101 146.532 75.702 146.389 75.6857C141.024 75.3372 143.362 70.7842 146.679 67.0738C150.079 63.2677 145.526 59.2458 146.074 56.053C146.621 52.8602 149.159 53.624 150.903 51.6746C152.647 49.7253 152.736 43.8805 158.59 44.0873C164.444 44.2942 165.588 49.9997 164.229 52.927C162.595 55.4148 164.046 61.5847 164.751 63.2017C165.456 64.8186 169.461 71.2365 170.182 73.5754C170.551 74.765 168.663 76.0583 166.133 76.8962Z" fill="#202F85"/>
<path d="M166.133 76.8962C163.703 77.7172 160.677 78.1148 158.513 77.6093C154.092 76.5888 152.733 75.8386 146.821 75.7099C146.676 75.7101 146.532 75.702 146.389 75.6857C146.372 72.8325 150.129 72.5259 151.953 70.0381C153.778 67.5503 153.181 57.3512 154.109 54.6478C154.109 54.6478 166.299 63.4045 166.504 72.319C166.547 74.2257 166.432 75.7187 166.133 76.8962Z" fill="#000A5D"/>
<path d="M173.24 56.2727L172.626 66.3478L171.847 79.0258C171.814 79.5892 171.697 85.162 171.324 85.5347C170.936 85.9261 170.416 86.1595 169.865 86.1898L164.981 86.4884L162.758 86.6292C162.098 86.6716 161.445 86.468 160.926 86.0578C160.886 86.0319 160.85 86.001 160.818 85.966C160.541 85.73 160.315 85.4399 160.154 85.1134C159.993 84.7869 159.9 84.431 159.881 84.0674C159.814 82.832 159.657 79.4315 159.55 77.1513C159.483 75.8909 159.442 74.9782 159.442 74.9782C159.442 74.9782 154.452 74.447 154.151 69.4972C154.01 67.2332 154.002 63.6089 154.027 60.3421V60.2841C154.068 56.453 154.151 53.1362 154.151 53.1362L163.239 48.6911L173.24 56.2727Z" fill="#FC9E9E"/>
<path d="M156.717 54.0755C158.977 54.7475 161.935 54.1254 162.322 53.5556C162.322 53.5556 163.329 55.3697 165.999 55.9918C168.668 56.614 171.678 58.2237 171.936 58.6366C172.193 59.0495 171.051 52.0006 167.476 49.9796C163.902 47.9586 159.392 47.2842 158.147 49.4098C156.903 51.5354 156.717 54.0755 156.717 54.0755Z" fill="#FA6D6D"/>
<path d="M159.444 74.9807C159.444 74.9807 162.778 75.0177 166.002 72.7657C166.002 72.7657 164.516 76.3996 159.552 76.1944L159.444 74.9807Z" fill="#FA6D6D"/>
<path d="M174.55 56.4804L174.028 58.9754C173.041 61.2226 170.504 55.9403 167.642 55.6007C164.781 55.261 164.276 53.3535 162.203 52.234C162.185 52.2596 162.168 52.2865 162.153 52.3145C162.028 52.4964 161.564 52.9527 159.955 53.7906C157.816 54.9101 155.126 53.1105 154.11 54.6445C153.695 55.2667 153.52 56.0876 153.413 56.6566C153.256 57.5017 153.239 57.8341 152.816 56.2333C152.103 53.5467 150.51 50.4537 154.997 49.384C159.483 48.3144 162.884 46.2451 165.503 47.3276C168.122 48.4102 174.55 56.4804 174.55 56.4804Z" fill="#202F85"/>
<path d="M176.598 63.7192C176.316 64.5152 175.744 65.0794 175.064 65.4609V65.469C173.348 66.4646 170.968 66.3728 170.968 66.3728L170.594 58.8072C174.699 57.8897 177.618 60.8998 176.598 63.7192Z" fill="#FC9E9E"/>
<path d="M119.226 109.554C120.547 109.169 121.18 107.357 120.641 105.507C120.101 103.657 118.592 102.47 117.271 102.856C115.95 103.241 115.317 105.053 115.857 106.903C116.396 108.753 117.905 109.94 119.226 109.554Z" fill="#000A5D"/>
<path d="M135.668 63.2403H95.9187C95.6627 63.2405 95.4091 63.1903 95.1725 63.0924C94.9359 62.9945 94.7209 62.8509 94.5398 62.6698C94.3588 62.4888 94.2152 62.2738 94.1173 62.0372C94.0194 61.8006 93.9691 61.547 93.9694 61.291V44.3948C93.9698 43.8779 94.1753 43.3823 94.5408 43.0168C94.9063 42.6514 95.4018 42.4458 95.9187 42.4454H135.668C136.185 42.4454 136.681 42.6508 137.046 43.0163C137.412 43.3819 137.618 43.8777 137.618 44.3948V61.291C137.618 61.547 137.568 61.8006 137.469 62.0371C137.371 62.2737 137.228 62.4886 137.047 62.6697C136.866 62.8507 136.651 62.9942 136.414 63.0922C136.177 63.1901 135.924 63.2404 135.668 63.2403Z" fill="#2B42A0"/>
<path d="M132.087 48.5357H107.565C107.545 48.5357 107.529 48.5519 107.529 48.5719V49.8734C107.529 49.8934 107.545 49.9096 107.565 49.9096H132.087C132.107 49.9096 132.123 49.8934 132.123 49.8734V48.5719C132.123 48.5519 132.107 48.5357 132.087 48.5357Z" fill="#D6D6D6"/>
<path d="M132.087 52.5487H107.565C107.545 52.5487 107.529 52.5649 107.529 52.5849V53.8864C107.529 53.9064 107.545 53.9226 107.565 53.9226H132.087C132.107 53.9226 132.123 53.9064 132.123 53.8864V52.5849C132.123 52.5649 132.107 52.5487 132.087 52.5487Z" fill="#D6D6D6"/>
<path d="M132.087 56.5617H107.565C107.545 56.5617 107.529 56.5779 107.529 56.5979V57.8993C107.529 57.9193 107.545 57.9355 107.565 57.9355H132.087C132.107 57.9355 132.123 57.9193 132.123 57.8993V56.5979C132.123 56.5779 132.107 56.5617 132.087 56.5617Z" fill="#D6D6D6"/>
<path d="M98.8967 53.236C98.7779 53.2356 98.6616 53.2027 98.5602 53.1409C98.4588 53.079 98.3763 52.9907 98.3215 52.8853C98.2667 52.78 98.2418 52.6617 98.2494 52.5432C98.257 52.4247 98.2969 52.3105 98.3647 52.2131C98.4363 52.1125 100.11 49.7253 100.986 48.8061C101.12 48.6677 101.199 48.584 100.446 47.8049C100.253 47.6141 100.074 47.4097 99.91 47.1932C99.8166 47.0522 99.7819 46.8803 99.8132 46.7141C99.8445 46.5479 99.9393 46.4004 100.077 46.3029C100.216 46.2054 100.386 46.1656 100.554 46.1919C100.721 46.2183 100.871 46.3086 100.972 46.4439C101.097 46.6059 101.234 46.7587 101.38 46.9011C101.907 47.4451 103.001 48.5776 101.926 49.7044C101.116 50.5527 99.4464 52.935 99.4311 52.9592C99.3709 53.045 99.2909 53.1149 99.1978 53.1632C99.1048 53.2114 99.0015 53.2364 98.8967 53.236Z" fill="#D6D6D6"/>
<path d="M102.307 53.236C102.188 53.2356 102.072 53.2027 101.97 53.1409C101.869 53.079 101.787 52.9907 101.732 52.8853C101.677 52.78 101.652 52.6617 101.66 52.5432C101.667 52.4247 101.707 52.3105 101.775 52.2131C101.846 52.1125 103.52 49.7253 104.396 48.8061C104.529 48.6677 104.609 48.584 103.856 47.8049C103.663 47.6139 103.484 47.4095 103.319 47.1932C103.226 47.0522 103.191 46.8803 103.223 46.7141C103.254 46.5479 103.349 46.4004 103.487 46.3029C103.625 46.2054 103.796 46.1656 103.963 46.1919C104.13 46.2183 104.28 46.3086 104.382 46.4439C104.507 46.6059 104.644 46.7587 104.791 46.9011C105.317 47.4451 106.412 48.5776 105.336 49.7044C104.527 50.5527 102.857 52.935 102.841 52.9592C102.781 53.045 102.701 53.115 102.608 53.1632C102.515 53.2115 102.412 53.2364 102.307 53.236Z" fill="#D6D6D6"/>
<path d="M172.626 66.3478L171.847 79.0258C171.814 79.5892 171.697 85.162 171.324 85.5347C170.936 85.9261 170.416 86.1595 169.865 86.1898L164.98 86.4884C166.722 81.4983 167.601 73.0965 167.783 72.3665C167.941 71.8047 170.96 68.2634 172.626 66.3478Z" fill="#FA6D6D"/>
<path d="M231.051 55.546H204.07C203.839 55.5461 203.61 55.5006 203.397 55.4123C203.183 55.3239 202.989 55.1944 202.826 55.0311C202.663 54.8677 202.533 54.6738 202.445 54.4604C202.357 54.247 202.312 54.0183 202.312 53.7874V38.5475C202.312 38.3167 202.357 38.088 202.445 37.8747C202.534 37.6614 202.663 37.4676 202.826 37.3043C202.99 37.1411 203.183 37.0116 203.397 36.9233C203.61 36.835 203.839 36.7896 204.07 36.7897H231.051C231.282 36.7895 231.511 36.8348 231.724 36.9231C231.938 37.0113 232.132 37.1408 232.295 37.3041C232.458 37.4673 232.588 37.6612 232.676 37.8745C232.765 38.0879 232.81 38.3166 232.81 38.5475V53.7874C232.81 54.2538 232.625 54.7011 232.295 55.0309C231.965 55.3607 231.518 55.546 231.051 55.546Z" fill="#2B42A0"/>
<path d="M219.185 43.5706L221.854 45.1376C221.907 45.1691 221.951 45.214 221.982 45.268C222.012 45.3219 222.028 45.3829 222.028 45.4449C222.027 45.5069 222.01 45.5676 221.979 45.621C221.948 45.6745 221.903 45.7187 221.849 45.7493L219.157 47.2785L216.465 48.8078C216.396 48.8475 216.315 48.8624 216.235 48.85C216.156 48.8376 216.084 48.7985 216.03 48.7393C215.969 48.6736 215.936 48.5872 215.938 48.4979L215.961 45.4024L215.984 42.307C215.984 42.245 216.001 42.1843 216.033 42.1309C216.064 42.0775 216.109 42.0332 216.163 42.0027C216.217 41.9721 216.278 41.9562 216.34 41.9567C216.402 41.9571 216.462 41.9738 216.516 42.0052L219.185 43.5706Z" fill="white"/>
<path d="M229.246 52.7322H205.12C205.088 52.7322 205.057 52.7195 205.035 52.6968C205.012 52.6742 204.999 52.6435 204.999 52.6115C204.999 52.5795 205.012 52.5488 205.035 52.5261C205.057 52.5035 205.088 52.4908 205.12 52.4908H229.246C229.278 52.4908 229.309 52.5035 229.332 52.5261C229.354 52.5488 229.367 52.5795 229.367 52.6115C229.367 52.6435 229.354 52.6742 229.332 52.6968C229.309 52.7195 229.278 52.7322 229.246 52.7322Z" fill="white"/>
<path d="M209.845 53.1845C210.162 53.1845 210.418 52.928 210.418 52.6115C210.418 52.295 210.162 52.0384 209.845 52.0384C209.529 52.0384 209.272 52.295 209.272 52.6115C209.272 52.928 209.529 53.1845 209.845 53.1845Z" fill="white"/>
<path d="M153.022 17.6899C153.022 16.2453 153.314 14.8157 153.88 13.4868C154.447 12.1579 155.276 10.9571 156.317 9.95657C157.359 8.95605 158.593 8.1764 159.944 7.66443C161.294 7.15247 162.735 6.91875 164.178 6.9773C169.633 7.193 174.109 11.565 174.444 17.013C174.544 18.5824 174.298 20.1547 173.721 21.6179C173.145 23.0811 172.253 24.3992 171.109 25.4784C169.965 26.5677 169.054 27.8789 168.433 29.3319C167.812 30.7849 167.494 32.3492 167.498 33.9293V34.2915H159.989V33.9301C159.989 30.6898 158.604 27.6378 156.278 25.3818C155.247 24.384 154.427 23.1887 153.868 21.8672C153.308 20.5456 153.021 19.1249 153.022 17.6899Z" fill="#FEAD00"/>
<path d="M158.256 8.48077C156.473 11.3243 155.771 14.8479 156.405 18.1486C156.538 18.9039 156.772 19.6378 157.101 20.3306C157.523 21.1829 158.136 21.9314 158.836 22.5745C161.196 24.7395 164.623 25.678 167.756 25.018C170.256 24.4908 172.515 22.9552 173.979 20.8666C173.433 22.625 172.444 24.2132 171.106 25.4784C169.962 26.5677 169.051 27.8789 168.43 29.3319C167.809 30.7849 167.491 32.3492 167.495 33.9293V34.2915H159.986V33.9301C159.986 30.6898 158.6 27.6378 156.275 25.3818C155.094 24.2362 154.192 22.834 153.64 21.2838C153.088 19.7336 152.9 18.0771 153.092 16.4427C153.283 14.8083 153.848 13.2399 154.743 11.859C155.638 10.4782 156.839 9.32194 158.253 8.47997L158.256 8.48077Z" fill="#F27203"/>
<path d="M166.168 11.4885C165.846 11.1593 165.515 10.7955 165.435 10.3416C165.288 9.50052 166.128 8.73672 166.979 8.67313C167.831 8.60955 168.638 9.04819 169.333 9.54398C170.205 10.1648 170.992 10.8952 171.677 11.7171C172.079 12.2 172.455 12.8495 172.182 13.4073C171.955 13.8741 171.371 14.0439 170.852 14.0511C169.935 14.0672 169.037 13.7405 168.259 13.2567C167.481 12.773 166.808 12.1428 166.168 11.4885Z" fill="#FFD579"/>
<path d="M162.779 8.96046C162.69 8.70676 162.706 8.4284 162.822 8.18619C163.408 6.84531 165.826 7.86908 165.142 9.18018C164.63 10.1597 163.093 9.82647 162.779 8.96046Z" fill="#FFD579"/>
<path d="M170.267 11.1199C170.516 11.3822 170.76 11.713 170.705 12.0712C170.695 12.151 170.663 12.2263 170.612 12.2885C170.548 12.351 170.469 12.3953 170.383 12.4165C169.95 12.5469 169.474 12.4285 169.084 12.2C168.695 11.9714 168.377 11.6366 168.065 11.3146C167.913 11.1728 167.786 11.0072 167.688 10.8245C167.64 10.7324 167.615 10.6301 167.615 10.5263C167.615 10.4224 167.64 10.3201 167.688 10.2281C168.13 10.0261 168.654 10.0671 169.105 10.2555C169.555 10.4438 169.932 10.7673 170.267 11.1199Z" fill="white"/>
<path d="M168.293 22.597C168.429 22.3556 168.771 22.5672 168.659 22.8119C167.105 26.1923 166.554 29.5928 166.503 33.2902C166.499 33.6782 165.956 33.6589 165.915 33.2902C165.508 29.6338 166.508 25.785 168.293 22.597Z" fill="white"/>
<path d="M159.288 22.597C159.152 22.3556 158.809 22.5672 158.922 22.8119C160.475 26.1923 161.026 29.5928 161.077 33.2902C161.082 33.6782 161.624 33.6589 161.665 33.2902C162.073 29.6338 161.072 25.785 159.288 22.597Z" fill="white"/>
<path d="M163.743 40.5299C164.723 40.5299 165.516 39.736 165.516 38.7568C165.516 37.7775 164.723 36.9837 163.743 36.9837C162.764 36.9837 161.97 37.7775 161.97 38.7568C161.97 39.736 162.764 40.5299 163.743 40.5299Z" fill="#101D71"/>
<path d="M166.33 32.5828H161.157C160.466 32.5828 159.906 33.1431 159.906 33.8343V37.9222C159.906 38.6134 160.466 39.1737 161.157 39.1737H166.33C167.021 39.1737 167.582 38.6134 167.582 37.9222V33.8343C167.582 33.1431 167.021 32.5828 166.33 32.5828Z" fill="#000A5D"/>
<path d="M160.197 33.8963H167.29C167.463 33.9023 167.627 33.9753 167.747 34.0998C167.867 34.2244 167.934 34.3908 167.934 34.5639C167.934 34.7371 167.867 34.9035 167.747 35.028C167.627 35.1526 167.463 35.2255 167.29 35.2315H160.197C160.024 35.2255 159.86 35.1526 159.74 35.028C159.62 34.9035 159.552 34.7371 159.552 34.5639C159.552 34.3908 159.62 34.2244 159.74 34.0998C159.86 33.9753 160.024 33.9023 160.197 33.8963Z" fill="#101D71"/>
<path d="M160.197 36.3165H167.29C167.467 36.3165 167.636 36.3868 167.762 36.5119C167.887 36.637 167.957 36.8067 167.957 36.9837C167.957 37.1607 167.887 37.3304 167.762 37.4555C167.636 37.5806 167.467 37.6509 167.29 37.6509H160.197C160.11 37.6509 160.023 37.6337 159.942 37.6001C159.861 37.5666 159.788 37.5175 159.726 37.4555C159.664 37.3935 159.615 37.32 159.581 37.239C159.548 37.1581 159.53 37.0713 159.53 36.9837C159.53 36.8961 159.548 36.8093 159.581 36.7284C159.615 36.6474 159.664 36.5739 159.726 36.5119C159.788 36.45 159.861 36.4008 159.942 36.3673C160.023 36.3337 160.11 36.3165 160.197 36.3165Z" fill="#101D71"/>
<path d="M163.449 8.97976C163.408 8.92416 163.379 8.86131 163.363 8.79465C163.342 8.70415 163.343 8.61005 163.366 8.52007C163.389 8.43009 163.432 8.34678 163.494 8.27697C163.555 8.20717 163.632 8.15284 163.718 8.11845C163.804 8.08406 163.897 8.07059 163.99 8.07914C164.392 8.11616 164.897 8.80351 164.48 9.12545C164.185 9.35241 163.667 9.27675 163.449 8.97976Z" fill="white"/>
<path d="M167.373 22.0916C167.113 22.1007 166.851 22.0907 166.592 22.0618C166.668 21.9487 166.734 21.8294 166.789 21.7053C167.161 20.9085 166.614 20.1269 165.856 19.9346C165.188 19.7833 164.528 20.572 164.756 21.2095C164.961 21.7479 165.31 22.0513 165.735 22.2107C165.675 22.2547 165.623 22.3092 165.583 22.3717C165.569 22.38 165.556 22.3903 165.545 22.4022C164.854 22.7129 164.016 22.865 163.269 22.6437C163.166 22.6142 163.064 22.579 162.965 22.5383C162.672 22.4409 162.392 22.3082 162.131 22.1431C162.332 22.0083 162.504 21.8339 162.636 21.6305C162.767 21.427 162.856 21.1989 162.897 20.96C163.041 20.1937 162.169 19.5032 161.455 19.7076C160.651 19.9281 160.553 21.0887 160.993 21.6731C161.085 21.7964 161.187 21.9129 161.296 22.0216C161.125 22.0392 160.952 22.0443 160.78 22.0369C160.491 22.041 160.202 22.0638 159.916 22.1053C159.858 22.1053 159.803 22.1281 159.763 22.1687C159.722 22.2093 159.699 22.2643 159.699 22.3218C159.699 22.3792 159.722 22.4343 159.763 22.4749C159.803 22.5155 159.858 22.5383 159.916 22.5383C160.507 22.6188 161.145 22.5833 161.686 22.3862C161.787 22.4682 161.895 22.5417 162.008 22.6059C162.574 22.9923 163.243 23.2011 163.928 23.2055C164.838 23.1982 165.757 22.9705 166.363 22.3403C166.702 22.3671 167.043 22.3596 167.38 22.3177C167.403 22.3138 167.423 22.3029 167.44 22.2866C167.456 22.2704 167.467 22.2495 167.471 22.2268C167.478 22.2114 167.48 22.1945 167.479 22.1777C167.477 22.161 167.471 22.145 167.461 22.1313C167.451 22.1176 167.438 22.1068 167.422 22.0998C167.407 22.0928 167.39 22.09 167.373 22.0916Z" fill="white"/>
<path d="M161.778 20.2887C161.863 20.3017 161.944 20.3345 162.013 20.3844C162.083 20.4343 162.141 20.5 162.18 20.576C162.238 20.6791 162.271 20.898 162.139 20.9551C162.129 20.9609 162.118 20.9639 162.107 20.9639C162.096 20.9639 162.085 20.9609 162.075 20.9551C162.015 20.9093 162.011 20.8602 161.982 20.7942C161.962 20.7515 161.934 20.7134 161.899 20.682C161.864 20.6506 161.823 20.6266 161.779 20.6115C161.586 20.5447 161.462 20.7724 161.376 20.9052C161.365 20.9241 161.348 20.9392 161.328 20.9488C161.307 20.9583 161.285 20.9618 161.263 20.9589C161.241 20.9561 161.22 20.9469 161.203 20.9325C161.186 20.9181 161.174 20.8992 161.167 20.8779C161.077 20.5334 161.456 20.2477 161.778 20.2887Z" fill="#F05831"/>
<path d="M165.909 20.5189C165.994 20.5317 166.074 20.5644 166.144 20.6144C166.214 20.6643 166.271 20.73 166.311 20.8062C166.368 20.9085 166.402 21.1282 166.27 21.1845C166.26 21.1902 166.249 21.1933 166.238 21.1933C166.226 21.1933 166.215 21.1902 166.206 21.1845C166.147 21.1394 166.143 21.0895 166.112 21.0235C166.093 20.9807 166.065 20.9424 166.03 20.9109C165.995 20.8795 165.954 20.8556 165.909 20.8408C165.716 20.7732 165.594 21.0018 165.511 21.1338C165.499 21.1527 165.482 21.1678 165.462 21.1774C165.442 21.1869 165.42 21.1904 165.398 21.1875C165.376 21.1846 165.355 21.1755 165.338 21.1611C165.321 21.1467 165.308 21.1277 165.302 21.1064C165.21 20.7636 165.59 20.4771 165.909 20.5189Z" fill="#F05831"/>
<path d="M175.036 25.8478C175.549 25.8478 175.989 26.3412 176.358 26.6527C176.803 27.0318 177.364 27.4237 177.527 28.0145C177.636 28.404 177.271 28.7388 176.894 28.6479C176.35 28.5199 175.956 28.0282 175.593 27.6346C175.23 27.241 174.673 26.7935 174.645 26.2357C174.647 26.1327 174.688 26.0343 174.761 25.9617C174.835 25.8891 174.933 25.8482 175.036 25.8478Z" fill="#FEAD00"/>
<path d="M177.432 18.4633C177.754 18.1205 178.326 18.1631 178.767 18.1253C179.341 18.0762 179.926 18.0174 180.392 18.4046C180.633 18.6042 180.507 18.9374 180.303 19.0935C179.867 19.4283 179.276 19.302 178.767 19.2545C178.332 19.2159 177.737 19.2223 177.432 18.8762C177.379 18.8206 177.35 18.7466 177.35 18.6698C177.35 18.5929 177.379 18.519 177.432 18.4633Z" fill="#FEAD00"/>
<path d="M176.391 11.7815C176.561 11.3259 176.961 11.0499 177.337 10.7665C177.834 10.3923 178.278 10.0816 178.91 10.0277C179.291 9.99469 179.42 10.4857 179.2 10.7279C178.851 11.1134 178.425 11.2833 177.966 11.5062C177.528 11.7179 177.092 12.0277 176.593 12.0471C176.561 12.0468 176.529 12.0392 176.5 12.0248C176.471 12.0103 176.446 11.9895 176.427 11.9639C176.407 11.9382 176.394 11.9084 176.387 11.8768C176.381 11.8452 176.382 11.8126 176.391 11.7815Z" fill="#FEAD00"/>
<path d="M170.828 4.57725C171.093 4.16433 171.437 3.80858 171.842 3.53094C172.096 3.34824 172.508 3.65328 172.388 3.95107C172.216 4.40941 171.954 4.82884 171.617 5.18491C171.318 5.50685 170.993 5.92215 170.563 6.05495C170.525 6.06515 170.485 6.06646 170.446 6.05877C170.407 6.05108 170.37 6.0346 170.339 6.01059C170.308 5.98658 170.282 5.95567 170.264 5.92025C170.247 5.88483 170.237 5.84584 170.237 5.80625C170.264 5.35393 170.588 4.94426 170.828 4.57725Z" fill="#FEAD00"/>
<path d="M152.66 25.8478C152.147 25.8478 151.708 26.3412 151.339 26.6527C150.893 27.0318 150.333 27.4237 150.169 28.0145C150.061 28.404 150.426 28.7388 150.803 28.6479C151.346 28.5199 151.741 28.0282 152.105 27.6346C152.468 27.241 153.024 26.7935 153.051 26.2357C153.05 26.1327 153.008 26.0343 152.935 25.9617C152.862 25.8891 152.763 25.8482 152.66 25.8478Z" fill="#FEAD00"/>
<path d="M150.264 18.4633C149.942 18.1205 149.371 18.1631 148.93 18.1253C148.356 18.0762 147.77 18.0174 147.304 18.4046C147.063 18.6042 147.19 18.9374 147.394 19.0935C147.83 19.4283 148.421 19.302 148.93 19.2545C149.365 19.2159 149.959 19.2223 150.264 18.8762C150.317 18.8206 150.347 18.7467 150.347 18.6698C150.347 18.5929 150.317 18.5189 150.264 18.4633Z" fill="#FEAD00"/>
<path d="M151.306 11.7815C151.135 11.3259 150.735 11.0499 150.359 10.7665C149.863 10.3923 149.419 10.0816 148.786 10.0277C148.405 9.99469 148.277 10.4857 148.496 10.7279C148.846 11.1134 149.271 11.2833 149.73 11.5062C150.169 11.7179 150.604 12.0277 151.103 12.0471C151.136 12.0469 151.167 12.0394 151.196 12.025C151.225 12.0107 151.25 11.9898 151.27 11.9642C151.29 11.9385 151.303 11.9087 151.309 11.877C151.316 11.8453 151.314 11.8126 151.306 11.7815Z" fill="#FEAD00"/>
<path d="M156.869 4.57725C156.604 4.16435 156.259 3.80859 155.855 3.53094C155.6 3.34824 155.188 3.65328 155.309 3.95107C155.481 4.40953 155.743 4.82902 156.079 5.18491C156.378 5.50685 156.704 5.92215 157.133 6.05495C157.172 6.06532 157.212 6.06676 157.251 6.05913C157.29 6.05151 157.326 6.03504 157.358 6.01099C157.389 5.98695 157.415 5.95598 157.432 5.92048C157.45 5.88497 157.459 5.84589 157.459 5.80625C157.432 5.35393 157.11 4.94426 156.869 4.57725Z" fill="#FEAD00"/>
<path d="M162.885 0.57474C163.099 0.397673 163.441 0.39365 163.589 0.665689C163.878 1.19447 163.597 1.84962 163.508 2.40979C163.482 2.57076 163.519 3.60821 163.106 3.47622C162.657 3.33376 162.649 2.63274 162.595 2.24077C162.517 1.70555 162.422 0.955434 162.885 0.57474Z" fill="#FEAD00"/>
<path d="M207.793 80.1237H193.345C193.24 80.1214 193.137 80.0982 193.042 80.0554C192.946 80.0125 192.86 79.9509 192.789 79.8742C192.555 79.6399 192.403 79.2617 192.403 78.8343V67.6638C192.398 67.3387 192.494 67.02 192.679 66.7527C192.849 66.5193 193.082 66.3752 193.345 66.3752H207.793C207.902 66.3779 208.009 66.403 208.108 66.449C208.206 66.495 208.295 66.5608 208.367 66.6424C208.613 66.9245 208.745 67.2892 208.735 67.6638V78.8343C208.741 79.1609 208.645 79.4814 208.459 79.7502C208.289 79.9788 208.057 80.1237 207.793 80.1237Z" fill="#4D69C1"/>
<path d="M202.312 72.2393C202.038 72.1589 201.953 71.8739 201.835 71.643C201.731 71.4015 201.641 71.1423 201.555 70.8856C201.385 70.3729 201.233 69.8441 201.08 69.3322C201.055 69.2448 200.999 69.1689 200.924 69.1175C200.849 69.066 200.758 69.042 200.667 69.0496C200.576 69.0571 200.491 69.0958 200.425 69.159C200.359 69.2222 200.317 69.3061 200.306 69.3966V69.4232C200.173 70.5379 200.293 71.647 200.552 72.6981C200.679 73.2234 200.84 73.7397 201.035 74.2434C201.135 74.5235 201.254 74.7947 201.373 75.0652C201.225 74.9188 201.049 74.8036 200.856 74.7265C200.662 74.6493 200.455 74.6118 200.247 74.6161C199.466 74.6161 198.833 75.1143 198.833 75.7284C198.833 76.3425 199.466 76.8399 200.247 76.8399C201.027 76.8399 201.661 76.3425 201.661 75.7284C201.698 75.1779 201.606 74.641 201.542 74.1187L201.326 72.5556C201.27 72.1234 201.22 71.6937 201.18 71.2679C201.298 71.4622 201.43 71.6471 201.576 71.8208C201.753 72.0132 202.004 72.2933 202.312 72.2393Z" fill="#F5F5F5"/>
<path d="M147.285 230.831C146.722 230.764 144.258 230.118 141.944 229.479C139.648 228.857 137.483 228.243 137.483 228.243L137.575 216.12L147.733 214.047C147.733 214.047 147.832 216.542 147.894 219.611C147.989 224.528 147.981 230.914 147.285 230.831Z" fill="#FC9E9E"/>
<path d="M147.285 230.831C146.722 230.764 144.258 230.118 141.944 229.479C141.542 226.519 139.847 222.754 140.643 220.398H140.891C140.891 220.398 144.723 219.479 147.894 219.611C147.989 224.528 147.981 230.914 147.285 230.831Z" fill="#FA6D6D"/>
<path d="M146.535 227.53C146.121 228.126 143.581 229.402 141.898 228.255C141.359 227.879 140.959 227.566 140.627 227.319C140.023 226.872 139.671 226.649 139.202 226.751C139.116 226.77 139.031 226.797 138.949 226.832C138.064 227.193 139.61 225.855 138.611 225.4C137.613 224.944 137.27 224.201 136.766 225.941C136.261 227.682 133.532 230.509 133.153 230.61C132.774 230.71 130.636 231.681 128.919 233.539C127.236 233.861 124.663 233.765 124.031 233.459C123.398 233.153 122.362 232.799 121.887 233.303C121.516 233.706 122.032 238.005 128.99 238.392C130.874 238.5 133.233 238.319 136.173 237.693C138.037 237.291 139.662 236.937 141.077 236.604C150.144 234.49 150.66 233.686 150.66 233.686C150.66 233.686 151.096 229.586 148.966 227.314C146.835 225.042 146.944 226.932 146.535 227.53Z" fill="#101D71"/>
<path d="M136.766 225.934C136.261 227.675 133.532 230.502 133.153 230.602C132.774 230.703 130.636 231.674 128.919 233.532C127.236 233.854 124.663 233.757 124.031 233.452C123.398 233.146 122.362 232.792 121.887 233.296C121.516 233.699 122.032 237.998 128.99 238.384C132.29 238.119 134.499 237.127 135.221 235.382C136.433 232.468 137.417 228.428 139.059 226.892C139.113 226.845 139.156 226.792 139.202 226.747C139.116 226.766 139.031 226.793 138.949 226.828C138.064 227.189 139.61 225.851 138.611 225.396C137.613 224.94 137.27 224.193 136.766 225.934Z" fill="#2B42A0"/>
<path d="M146.535 227.53C146.12 228.126 143.581 229.402 141.898 228.255C141.359 227.879 140.959 227.566 140.627 227.319C139.485 227.979 138.41 228.871 138.078 230.239C137.487 232.665 141.467 233.78 142.436 234.013C142.948 234.136 141.86 235.343 141.077 236.601C150.144 234.487 150.66 233.683 150.66 233.683C150.66 233.683 151.096 229.583 148.966 227.311C146.835 225.038 146.944 226.932 146.535 227.53Z" fill="#000A5D"/>
<path d="M150.644 232.496C150.162 233.646 146.95 234.669 144.466 234.899C143.766 234.964 142.904 235.081 142.017 235.221C139.773 235.562 137.405 236.025 137.24 236.12C137.108 236.194 135.999 236.516 134.101 236.807C132.353 237.076 130.591 237.24 128.823 237.297C119.572 237.351 124.127 232.014 122.054 233.08C120.129 234.067 120.195 235.977 123.428 238.289C123.683 238.472 123.956 238.659 124.253 238.844C128.291 241.407 137.983 239.122 137.983 239.122C137.983 239.122 138.838 239.03 140.465 238.78C142.268 238.507 145.018 238.048 148.579 237.312C155.339 235.905 150.644 232.496 150.644 232.496Z" fill="#D6D6D6"/>
<path d="M150.645 232.496C150.162 233.646 146.95 234.669 144.467 234.899C143.766 234.964 142.904 235.081 142.017 235.221C141.268 236.308 140.068 237.865 140.469 238.78C142.271 238.507 145.021 238.048 148.583 237.312C155.339 235.905 150.645 232.496 150.645 232.496Z" fill="#B7B7B7"/>
<path d="M122.057 233.074C120.132 234.062 120.198 235.972 123.432 238.283C128.443 238.766 132.205 238.293 134.104 236.801C132.356 237.07 130.594 237.234 128.827 237.291C119.575 237.348 124.13 232.011 122.057 233.074Z" fill="white"/>
<path d="M186.093 163.7L177.759 165.814L163.307 169.472L151.3 172.515L149.061 218.056H135.584C135.584 218.056 133.52 200.999 132.123 185.46C131.9 182.873 131.684 180.327 131.501 177.914C130.846 169.191 130.605 162.134 131.352 160.724C132.181 159.174 137.123 156.378 143.023 153.485C147.077 151.486 151.597 149.446 155.519 147.73C161.058 145.308 165.437 143.526 165.735 143.426L186.093 163.7Z" fill="#101D71"/>
<path d="M177.759 165.814L163.307 169.472L151.3 172.515L149.061 218.056H144.517C144.92 211.522 145.927 192.831 144.356 187.167C142.656 181.006 135.825 181.769 131.503 177.911C131.378 176.261 131.271 174.669 131.181 173.168C130.791 166.717 130.749 161.866 131.356 160.721C132.185 159.171 137.126 156.375 143.026 153.482C147.081 151.484 151.6 149.444 155.522 147.728C157.095 147.709 158.668 147.817 160.224 148.05C160.481 148.092 160.73 148.13 160.987 148.183C172.543 150.275 180.752 158.451 177.759 165.814Z" fill="#000A5D"/>
<path d="M172.518 163.052C169.093 163.641 149.159 159.511 143.023 153.483C152.816 148.682 165.221 143.599 165.736 143.423L186.093 163.698L163.307 169.472C168.264 166.321 174.923 162.638 172.518 163.052Z" fill="#010D51"/>
<path d="M140.095 218.056H135.588C135.588 218.056 133.524 200.999 132.127 185.46C134.059 189.082 136.58 190.493 137.484 195.527C138.346 200.36 139.54 211.92 140.095 218.056Z" fill="#2B42A0"/>
<path d="M149.151 157.338C138.86 154.999 136.256 166.384 131.181 173.167C130.791 166.716 130.749 161.865 131.356 160.72C132.185 159.17 137.126 156.374 143.026 153.482C147.081 151.483 151.6 149.443 155.522 147.727C157.095 147.708 158.668 147.816 160.224 148.049C160.481 148.091 160.73 148.129 160.987 148.182C162.543 152.992 157.153 159.156 149.151 157.338Z" fill="#010D51"/>
<path d="M148.238 103.622C148.454 103.076 148.709 102.547 149.001 102.038C148.86 102.337 148.611 102.884 148.238 103.622Z" fill="#F27203"/>
<path d="M192.403 122.902C188.199 122.902 160.105 120.568 152 121.683C150.424 121.899 149.13 121.824 148.152 121.542C146.908 121.202 146.145 120.546 145.88 119.775C145.283 118.026 147.29 115.663 152.149 115.057C158.493 114.261 169.14 113.888 175.409 113.938C175.707 113.938 176.006 113.946 176.28 113.946H176.297C178.067 113.963 179.39 114.026 180.02 114.129C181.579 114.37 181.379 111.641 180.899 109.161C180.645 107.874 180.327 106.601 179.945 105.347H192.4C192.4 105.347 196.608 122.902 192.403 122.902Z" fill="#FC9E9E"/>
<path d="M192.403 122.902C188.199 122.902 160.105 120.568 152 121.683C150.424 121.899 149.131 121.824 148.152 121.542C148.384 120.323 150.092 118.913 153.268 118.183C157.779 117.147 178.112 119.725 184.539 119.793C188.843 119.835 189.49 112.314 188.76 105.348H192.4C192.4 105.348 196.608 122.902 192.403 122.902Z" fill="#FA6D6D"/>
<path d="M175.412 113.938C174.119 114.319 172.054 114.751 168.862 115.265C162.394 116.301 155.478 114.709 152.235 115.712C149.74 116.492 147.647 119.334 145.883 119.775C145.287 118.026 147.293 115.663 152.152 115.057C158.496 114.261 169.143 113.888 175.412 113.938Z" fill="#F0C2D2"/>
<path d="M181.731 114.485C180.38 115.248 178.538 114.013 176.3 113.946C178.07 113.963 179.393 114.026 180.023 114.129C181.582 114.37 181.382 111.641 180.902 109.161C181.648 110.961 182.677 113.956 181.731 114.485Z" fill="#FA6D6D"/>
<path d="M110.912 205.548C110.449 205.218 108.602 203.465 106.882 201.791C105.169 200.14 103.568 198.56 103.568 198.56L109.489 187.979L119.388 191.056C119.388 191.056 118.273 193.291 116.846 196.008C114.564 200.368 111.481 205.959 110.912 205.548Z" fill="#FC9E9E"/>
<path d="M110.912 205.548C110.449 205.218 108.603 203.465 106.883 201.791C107.953 199.002 108.284 194.887 110.116 193.207L110.334 193.327C110.334 193.327 114.134 194.366 116.847 196.008C114.564 200.368 111.481 205.959 110.912 205.548Z" fill="#FA6D6D"/>
<path d="M111.843 202.298C111.193 202.62 108.354 202.515 107.433 200.696C107.142 200.107 106.942 199.64 106.771 199.264C106.456 198.581 106.255 198.218 105.794 198.08C105.71 198.053 105.624 198.035 105.536 198.025C104.585 197.915 106.582 197.488 105.93 196.608C105.277 195.727 105.332 194.911 104.051 196.193C102.77 197.476 99.0175 198.639 98.6343 198.547C98.2512 198.455 95.9123 198.273 93.5139 199.075C91.8825 198.548 89.6756 197.224 89.2699 196.646C88.8643 196.068 88.1254 195.264 87.4654 195.477C86.9471 195.652 85.3278 199.667 91.2394 203.358C92.8378 204.36 94.9916 205.338 97.8705 206.207C99.6967 206.755 101.292 207.225 102.692 207.614C111.656 210.129 112.496 209.673 112.496 209.673C112.496 209.673 114.853 206.293 114.081 203.273C113.309 200.253 112.489 201.971 111.843 202.298Z" fill="#101D71"/>
<path d="M104.051 196.193C102.77 197.476 99.0175 198.639 98.6343 198.547C98.2512 198.455 95.9123 198.273 93.5139 199.075C91.8825 198.548 89.6756 197.224 89.2699 196.646C88.8643 196.068 88.1254 195.264 87.4654 195.477C86.9471 195.652 85.3278 199.667 91.2394 203.358C94.26 204.715 96.6721 204.91 98.1466 203.729C100.612 201.759 103.421 198.692 105.6 198.137C105.67 198.122 105.732 198.097 105.794 198.08C105.71 198.053 105.624 198.035 105.536 198.025C104.585 197.915 106.582 197.488 105.93 196.608C105.277 195.727 105.332 194.911 104.051 196.193Z" fill="#2B42A0"/>
<path d="M111.843 202.298C111.193 202.62 108.354 202.515 107.433 200.696C107.142 200.107 106.942 199.64 106.771 199.264C105.451 199.291 104.079 199.556 103.129 200.594C101.439 202.436 104.391 205.332 105.13 206.001C105.52 206.356 103.984 206.887 102.692 207.611C111.656 210.126 112.496 209.67 112.496 209.67C112.496 209.67 114.853 206.289 114.081 203.27C113.309 200.25 112.489 201.971 111.843 202.298Z" fill="#000A5D"/>
<path d="M113.052 208.629C112.074 209.404 108.768 208.754 106.482 207.758C105.838 207.479 105.025 207.165 104.181 206.858C102.05 206.076 99.7546 205.341 99.5606 205.345C99.4093 205.345 98.2833 205.094 96.4821 204.437C94.8212 203.83 93.1981 203.125 91.6216 202.324C83.4878 197.914 90.0513 195.431 87.7213 195.367C85.5586 195.304 84.6958 197.01 86.4158 200.594C86.551 200.877 86.7007 201.172 86.8706 201.479C89.1756 205.67 98.7694 208.337 98.7694 208.337C98.7694 208.337 99.563 208.668 101.11 209.233C102.82 209.861 105.451 210.785 108.927 211.855C115.524 213.878 113.052 208.629 113.052 208.629Z" fill="#D6D6D6"/>
<path d="M113.052 208.629C112.074 209.404 108.768 208.754 106.482 207.758C105.838 207.479 105.025 207.165 104.181 206.858C103.001 207.449 101.199 208.236 101.11 209.231C102.82 209.86 105.451 210.783 108.927 211.853C115.524 213.878 113.052 208.629 113.052 208.629Z" fill="#B7B7B7"/>
<path d="M87.7213 195.367C85.5586 195.304 84.6958 197.01 86.4158 200.594C90.5761 203.429 94.1005 204.829 96.4821 204.437C94.8212 203.83 93.1981 203.125 91.6216 202.324C83.4878 197.914 90.0513 195.431 87.7213 195.367Z" fill="white"/>
<path d="M186.093 163.7C179.559 165.458 141.53 151.22 141.53 151.22L119.29 195.085L111.943 191.705L109.173 190.427L104.571 188.305C104.571 188.305 125.276 133.858 130.526 131.37C131.314 130.997 133.204 130.939 135.85 131.096C138.437 131.262 141.753 131.644 145.461 132.158H145.469C159.74 134.148 179.882 138.169 187.179 139.662C188.863 140.002 190.869 141.246 191.002 142.962C191.491 148.998 195.562 161.146 186.093 163.7Z" fill="#101D71"/>
<path d="M135.85 131.095C135.493 137.579 128.022 149.462 124.05 156.386C120.327 162.846 113.095 183.112 109.173 190.426L104.571 188.303C104.571 188.303 125.276 133.856 130.526 131.368C131.314 130.995 133.206 130.939 135.85 131.095Z" fill="#2B42A0"/>
<path d="M186.093 163.7C179.559 165.458 141.53 151.22 141.53 151.22L119.29 195.085L111.943 191.705C120.816 182.658 138.602 148.851 139.589 143.452C140.636 137.83 144.88 136.585 155.042 138.452C165.204 140.318 150.622 133.634 145.473 132.158C159.744 134.148 179.886 138.169 187.183 139.662C188.867 140.002 190.873 141.246 191.006 142.962C191.492 148.998 195.562 161.146 186.093 163.7Z" fill="#000A5D"/>
<path d="M122.691 192.389L120.267 197.967L108.115 193.385L101.496 190.889L101.499 190.881L103.232 185.084L107.107 186.538L112.937 188.731L122.691 192.389Z" fill="#101D71"/>
<path d="M107.107 186.538C105.791 188.443 103.267 190.11 101.499 190.885L103.232 185.09L107.107 186.538Z" fill="#2B42A0"/>
<path d="M122.69 192.389L120.268 197.967L108.115 193.385C109.534 192.369 111.617 190.465 112.937 188.731L122.69 192.389Z" fill="#000A5D"/>
<path d="M153.272 214.308L153.073 220.386L140.087 220.602L133.014 220.718V220.71L132.491 214.682L136.629 214.607L142.857 214.499L153.272 214.308Z" fill="#101D71"/>
<path d="M136.629 214.607C136.107 216.86 134.375 219.342 133.014 220.71L132.491 214.682L136.629 214.607Z" fill="#2B42A0"/>
<path d="M153.272 214.308L153.073 220.386L140.087 220.599C141.032 219.131 142.268 216.594 142.857 214.496L153.272 214.308Z" fill="#000A5D"/>
<path d="M161.926 50.4384C161.908 50.4641 161.891 50.491 161.876 50.5189C161.752 50.7008 161.288 51.1571 159.679 51.9942C157.54 53.1137 154.85 51.3149 153.833 52.8489C153.418 53.4703 153.244 54.2912 153.136 54.861C153.227 51.9837 153.619 51.0469 155.541 50.6155C157.714 50.1261 160.035 51.1523 161.279 50.2396C162.523 49.3269 162.54 49.6005 161.926 50.4384Z" fill="#2B42A0"/>
<path d="M159.444 74.9807C159.444 74.9807 154.454 74.4495 154.153 69.4996C154.012 67.2356 154.004 63.6114 154.029 60.3445C154.2 65.4528 155.121 72.0236 159.444 74.9807Z" fill="#F0C2D2"/>
<path d="M176.598 63.7192C176.316 64.5152 175.744 65.0794 175.064 65.4609C175.506 64.9132 175.774 64.2464 175.836 63.5454C176.01 61.1244 173.63 59.5316 170.594 58.8104C174.699 57.8897 177.618 60.8998 176.598 63.7192Z" fill="#F0C2D2"/>
<path d="M162.294 84.102C161.829 85.1548 161.265 85.6691 160.818 85.9677C160.541 85.7316 160.314 85.4415 160.153 85.115C159.992 84.7885 159.9 84.4326 159.881 84.069C159.814 82.8336 159.657 79.4331 159.549 77.1529C160.61 80.8842 163.239 81.9627 162.294 84.102Z" fill="#F0C2D2"/>
<path d="M28.6261 225.355C27.9086 226.946 27.2754 228.575 26.7291 230.233C25.0067 229.854 23.2897 229.459 21.578 229.05C19.9683 228.663 18.3586 228.276 16.7489 227.874C13.2613 227.001 9.79424 226.094 6.34788 225.15C6.34788 225.15 -2.17065 217.178 3.11158 213.078C9.92221 207.794 -7.34583 192.312 3.93333 186.19C8.47107 183.728 3.22908 165.172 12.2957 167.035C14.4897 167.484 15.7936 168.825 16.5292 170.509C17.3791 172.421 17.4854 174.864 17.2882 177.367C16.8174 183.346 14.6402 189.644 16.8101 189.762C16.8729 189.769 16.9361 189.771 16.9993 189.77C21.3768 189.376 23.2771 186.303 23.6988 192.349C24.131 198.229 21.4911 209.791 25.0413 211.827C25.1312 211.88 25.2251 211.925 25.3222 211.963C29.2861 213.549 34.2633 212.844 28.6261 225.355Z" fill="url(#paint1_linear_82_137)"/>
<path d="M36.7471 232.384C33.386 231.702 30.0478 230.984 26.7323 230.23C25.01 229.85 23.2929 229.456 21.5813 229.046C19.9716 228.659 18.3619 228.272 16.7522 227.87C16.7063 227.491 16.6613 227.112 16.6001 226.717C15.0524 216.451 18.5317 217.985 21.7447 217.643C21.8638 217.632 21.9809 217.605 22.0932 217.563C23.5419 217.1 24.3846 214.666 25.0446 211.827C25.7045 208.988 26.1899 205.757 26.9416 203.687C28.4893 199.369 29.2403 201.996 32.351 203.178C32.3946 203.195 32.4404 203.205 32.487 203.208C34.0967 203.565 33.7997 198.535 34.6802 194.082C35.0521 192.222 35.6283 190.455 36.6376 189.241C37.5173 188.163 38.7302 187.511 40.4309 187.572C48.8375 187.86 41.8877 202.48 41.9786 204.544C42.0696 206.607 43.9907 203.831 47.2367 206.137C50.4826 208.442 38.1322 218.792 36.3873 220.893C34.6424 222.995 36.8879 220.931 43.4201 223.025C46.8681 224.13 42.6643 228.31 36.7471 232.384Z" fill="url(#paint2_linear_82_137)"/>
<path d="M282.586 218.82C269.762 212.764 266.966 201.606 270.656 200.508C274.346 199.41 275.307 200.622 275.307 200.622C275.307 200.622 264.421 184.117 269.694 181.078C274.967 178.038 277.463 181.267 277.463 181.267C277.463 181.267 269.953 164.446 274.793 160.905C279.632 157.363 282.474 170.697 282.165 175.244C282.165 175.244 285.224 171.754 288.243 173.709C291.262 175.664 291.407 181.805 291.407 181.805C291.407 181.805 293.79 177.507 298.57 180.594C303.351 183.68 297.367 213.436 293.693 217.804C290.019 222.173 282.586 218.82 282.586 218.82Z" fill="url(#paint3_linear_82_137)"/>
<path d="M298.385 144.642C297.746 142.887 295.005 143.725 295.342 145.428C295.679 147.13 296.254 149.256 297.904 148.421C299.554 147.585 298.648 145.366 298.385 144.642Z" fill="url(#paint4_linear_82_137)"/>
<path d="M294.82 153.494C293.504 155.029 292.057 154.65 290.284 153.347C288.512 152.045 287.158 153.675 285.558 151.849C283.957 150.022 286.317 143.72 290.87 146.482C295.422 149.244 295.474 152.73 294.82 153.494Z" fill="url(#paint5_linear_82_137)"/>
<path d="M264.773 181.127C266.742 181.585 267.075 183.042 266.74 185.216C266.405 187.39 268.475 187.837 267.596 190.101C266.718 192.365 260.037 193.185 260.383 187.873C260.728 182.561 263.794 180.9 264.773 181.127Z" fill="url(#paint6_linear_82_137)"/>
<path d="M306.265 197.765V218.258C293.914 221.824 281.534 225.013 269.127 227.825C268.922 224.692 269.69 218.683 278.178 217.651C278.8 217.575 279.4 217.507 279.969 217.445C289.49 216.452 291.204 217.658 291.341 217.772C291.212 217.385 286.82 204.746 296.561 200.019C297.42 199.6 298.32 199.268 299.246 199.029C299.308 199.014 299.376 198.991 299.444 198.976C302.023 198.305 304.292 197.933 306.265 197.765Z" fill="url(#paint7_linear_82_137)"/>
<path d="M306.265 172.71C309.217 173.381 313.758 179.478 310.45 185.727C308.887 188.681 314.022 191.073 315.279 193.584C317.809 198.649 312.448 205.979 311.301 208.182C309.815 211.043 309.223 217.064 309.223 217.064L306.265 218.254C304.315 216.564 301.122 210.281 298.297 204.059C297.698 202.731 297.114 201.373 296.56 200.016C293.427 192.284 291.371 184.568 293.32 182.558C295.627 180.175 297.706 180.418 299.041 181.041C299.606 181.301 300.12 181.661 300.558 182.103C300.49 181.746 299.398 176.018 301.825 173.507C303.2 172.083 304.926 172.409 306.265 172.71Z" fill="url(#paint8_linear_82_137)"/>
<defs>
<linearGradient id="paint0_linear_82_137" x1="176.738" y1="78.2274" x2="167.404" y2="246.232" gradientUnits="userSpaceOnUse">
<stop stop-color="white"/>
<stop offset="1" stop-color="#EBFFFD"/>
</linearGradient>
<linearGradient id="paint1_linear_82_137" x1="19.3623" y1="172.576" x2="13.8652" y2="219.205" gradientUnits="userSpaceOnUse">
<stop stop-color="#17F4CD"/>
<stop offset="1" stop-color="#174071"/>
</linearGradient>
<linearGradient id="paint2_linear_82_137" x1="46.9123" y1="200.816" x2="22.5841" y2="226.309" gradientUnits="userSpaceOnUse">
<stop stop-color="#17F4CD"/>
<stop offset="1" stop-color="#174071"/>
</linearGradient>
<linearGradient id="paint3_linear_82_137" x1="261.638" y1="164.702" x2="295.526" y2="208.706" gradientUnits="userSpaceOnUse">
<stop stop-color="#17F4CD"/>
<stop offset="1" stop-color="#174071"/>
</linearGradient>
<linearGradient id="paint4_linear_82_137" x1="274.681" y1="123.949" x2="322.325" y2="169.746" gradientUnits="userSpaceOnUse">
<stop stop-color="#17F4CD"/>
<stop offset="1" stop-color="#174071"/>
</linearGradient>
<linearGradient id="paint5_linear_82_137" x1="268.945" y1="129.917" x2="316.589" y2="175.714" gradientUnits="userSpaceOnUse">
<stop stop-color="#17F4CD"/>
<stop offset="1" stop-color="#174071"/>
</linearGradient>
<linearGradient id="paint6_linear_82_137" x1="255.966" y1="178.574" x2="273.164" y2="195.77" gradientUnits="userSpaceOnUse">
<stop stop-color="#17F4CD"/>
<stop offset="1" stop-color="#174071"/>
</linearGradient>
<linearGradient id="paint7_linear_82_137" x1="280.217" y1="207.13" x2="299.118" y2="221.448" gradientUnits="userSpaceOnUse">
<stop stop-color="#17F4CD"/>
<stop offset="1" stop-color="#174071"/>
</linearGradient>
<linearGradient id="paint8_linear_82_137" x1="317.788" y1="165.772" x2="296.537" y2="209.432" gradientUnits="userSpaceOnUse">
<stop stop-color="#17F4CD"/>
<stop offset="1" stop-color="#174071"/>
</linearGradient>
</defs>
</svg>
